<?xml version="1.0" encoding="utf-8"?>
<!-- Generator: Adobe Illustrator 21.0.0, SVG Export Plug-In . SVG Version: 6.00 Build 0)  -->
<svg version="1.1" id="Camada_1" xmlns="http://www.w3.org/2000/svg" xmlns:xlink="http://www.w3.org/1999/xlink" x="0px" y="0px"
	 viewBox="0 0 419 146" style="enable-background:new 0 0 419 146;" xml:space="preserve">
<style type="text/css">
	.st0{fill:#445F75;}
	.st1{fill:#E74C3C;}
	.st2{fill:#34495E;}
	.st3{fill:#1ABC9C;}
</style>
<g>
	<path class="st0" d="M127,53.7l-3.8-36.5c-0.1-1.4-1.3-2.5-2.7-2.7L84,10.7c-1.7-0.2-3.3,0.4-4.5,1.6L40.4,51.4
		c-2,2-2.1,5.2-0.2,7.1l39.1,39.1c1.9,1.9,5.1,1.8,7.1-0.2l39.1-39.1C126.6,57,127.2,55.4,127,53.7z M85.9,88.5
		c-2.8,2.8-2.8,2.8-5.5,0L49.1,57.2c-2.7-2.7-2.8-2.7,0-5.5l32.4-32.4c0.9-0.9,2.2-1.4,3.5-1.2l28.8,3.5c1.1,0.1,2,1,2.1,2.1
		l3.5,28.8c0.2,1.3-0.3,2.6-1.2,3.5L85.9,88.5z"/>
	<path class="st0" d="M103.9,55.9L81.8,33.8c-0.2-0.2-0.2-0.6,0-0.9l2.6-2.6c0.2-0.2,0.6-0.2,0.9,0l22.1,22.1c0.2,0.2,0.2,0.6,0,0.9
		l-2.6,2.6C104.5,56.1,104.1,56.1,103.9,55.9z"/>
	<path class="st0" d="M84.4,75.4L62.3,53.3c-0.2-0.2-0.2-0.6,0-0.9l2.6-2.6c0.2-0.2,0.6-0.2,0.9,0l22.1,22.1c0.2,0.2,0.2,0.6,0,0.9
		l-2.6,2.6C85,75.7,84.6,75.7,84.4,75.4z"/>
	<path class="st0" d="M94.1,65.6L72,43.5c-0.2-0.2-0.2-0.6,0-0.9l2.6-2.6c0.2-0.2,0.6-0.2,0.9,0l22.1,22.1c0.2,0.2,0.2,0.6,0,0.9
		L95,65.6C94.8,65.9,94.4,65.9,94.1,65.6z"/>
	<path class="st1" d="M50.9,113.1c4.2-3.1,7.7-6.6,9.2-11.7c1.1-3.7,0.3-9.7-2.5-13.5c0.7,2.7,0.4,6.6-3.8,10.8
		c-7.7,7.7-19.1,5.9-19.1,5.9c14-6.6,12.9-15,12.9-15c-6.6,0-10.9,3.7-10.9,3.7c1.1-6.4,6.7-10.4,9.5-11.7c1.4-0.7,3.3-0.8,5.1-0.2
		c-0.2-0.1-0.4-0.3-0.6-0.4c-7.5-4.5-14.5-4.9-22.6-0.3c-3.3,1.9-6.6,6.1-7,9.8c2.7-2.3,5.5-3.4,8-3.2l-0.6,0.6
		c-4.1,4-6.4,9-7.3,14.9c-0.3,2.2-0.9,11.6-6.5,17c-1.8,1.7-4,3-6,4.5c15.2,0.4,20.4-3.7,28.6-7.9c-0.6,5.9,2.4,10.6,2.6,10.9
		C40.2,123.8,39.9,121.1,50.9,113.1z"/>
	<g>
		<path class="st2" d="M115.3,22.4c0.4,0.4,0.6,0.9,0.7,1.4l3.5,28.8c0.2,1.3-0.3,2.6-1.2,3.5L85.9,88.5c-2.8,2.8-2.8,2.8-5.5,0
			L64.8,72.9l-5,5l19.5,19.5c1.9,1.9,5.1,1.8,7.1-0.2l39.1-39.1c1.2-1.2,1.8-2.8,1.6-4.5l-3.8-36.5c-0.1-0.7-0.9-1.8-0.9-1.8
			L115.3,22.4z"/>
		<path class="st2" d="M103.9,55.9L92.8,44.8l3.4-3.4l11.1,11.1c0.2,0.2,0.2,0.6,0,0.9l-2.6,2.6C104.5,56.1,104.1,56.1,103.9,55.9z"
			/>
		<path class="st2" d="M84.4,75.4L73.3,64.3l3.4-3.4L87.8,72c0.2,0.2,0.2,0.6,0,0.9l-2.6,2.6C85,75.7,84.6,75.7,84.4,75.4z"/>
		<path class="st2" d="M94.1,65.6L83,54.5l3.4-3.4l11.1,11.1c0.2,0.2,0.2,0.6,0,0.9l-2.6,2.6C94.8,65.9,94.4,65.9,94.1,65.6z"/>
	</g>
</g>
<g>
	<path class="st3" d="M145.5,92c-1.8,0-3.2,0.1-4.3,0.3s-2,0.6-2.6,1.3c-0.6,0.6-1,1.5-1.3,2.6c-0.2,1.1-0.3,2.6-0.3,4.5h12l-1,5.3
		h-10.9v26.4h-6.4V101c0-2.6,0.2-4.8,0.7-6.6s1.2-3.3,2.3-4.4c1.1-1.1,2.5-2,4.3-2.5s4-0.8,6.7-0.8c0.9,0,2.1,0,3.5,0
		s2.6,0.1,3.6,0.1l-1.1,5.3c-0.8,0-1.7-0.1-2.7-0.1C147,92,146.2,92,145.5,92z"/>
	<path class="st3" d="M179.3,127.2c0,2-0.5,3.3-1.4,4.1c-0.9,0.8-2.5,1.2-4.9,1.2h-9.2c-4.3,0-7.4-0.8-9.2-2.4
		c-1.9-1.6-2.8-3.9-2.8-7.1v-1.4c0-3.4,1-5.9,3-7.4s5.2-2.2,9.5-2.2c2.5,0,4.4,0.2,5.8,0.6c1.4,0.4,2.4,0.8,3.1,1.3V112
		c0-1-0.1-1.9-0.2-2.7c-0.1-0.8-0.5-1.4-1-1.9c-0.6-0.5-1.4-0.9-2.4-1.2c-1-0.3-2.5-0.4-4.3-0.4c-1.7,0-3.6,0-5.5,0s-3.6,0.1-5,0.1
		l1.2-5.3c1.1,0,2.6-0.1,4.2-0.1c1.7,0,3.4,0,5.1,0c5,0,8.5,0.9,10.7,2.6c2.2,1.7,3.3,4.3,3.3,7.7L179.3,127.2L179.3,127.2z
		 M157.8,122.9c0,1.4,0.4,2.5,1.3,3.2c0.9,0.7,2.4,1.1,4.7,1.1h9.3v-5.6c0-0.8-0.1-1.5-0.2-2c-0.2-0.6-0.5-1-1-1.4
		c-0.5-0.3-1.2-0.6-2.1-0.8c-0.9-0.2-2.2-0.2-3.7-0.2h-1.4c-1.4,0-2.5,0.1-3.3,0.2c-0.9,0.1-1.6,0.4-2.1,0.7
		c-0.5,0.3-0.9,0.8-1.1,1.4s-0.3,1.3-0.3,2.1L157.8,122.9L157.8,122.9z"/>
	<path class="st3" d="M204.7,113.7c1.8,0.2,3.3,0.5,4.5,1.1c1.1,0.6,2,1.3,2.6,2.1c0.6,0.8,1,1.7,1.3,2.7c0.2,1,0.3,1.9,0.3,2.8v0.9
		c0,2.9-1,5.2-3.1,6.8c-2.1,1.6-5.3,2.4-9.6,2.4c-1.8,0-4,0-6.4,0s-4.9-0.1-7.3-0.1l1.1-5.3c2.2,0,4.5,0.1,6.8,0.1s4.4,0,6.2,0
		c2.4,0,4-0.3,4.9-0.8s1.3-1.6,1.3-3.1c0-0.5-0.1-1-0.2-1.4c-0.1-0.4-0.3-0.8-0.6-1.1c-0.3-0.3-0.7-0.6-1.3-0.8
		c-0.6-0.2-1.4-0.4-2.3-0.5l-7.4-0.7c-1.5-0.1-2.8-0.4-3.9-1c-1.1-0.5-1.9-1.1-2.6-1.9c-0.7-0.8-1.1-1.6-1.4-2.5
		c-0.3-0.9-0.5-1.9-0.5-2.9v-1c0-2.8,1-5,2.9-6.5c1.9-1.6,5.1-2.4,9.5-2.4c2,0,4,0,6.1,0s4.5,0,7.2,0.1l-1.1,5.3
		c-1.7,0-3.2-0.1-4.5-0.1s-2.5,0-3.5,0s-1.9,0-2.7,0s-1.5,0-2.2,0c-2.1,0-3.5,0.3-4.4,0.8c-0.8,0.5-1.2,1.4-1.2,2.7
		c0,0.5,0.1,1,0.2,1.4c0.1,0.4,0.3,0.8,0.6,1c0.3,0.3,0.8,0.5,1.4,0.7c0.6,0.2,1.4,0.3,2.4,0.4L204.7,113.7z"/>
	<path class="st3" d="M221.3,93.2l6.4-1.2v8.7h11.7l-1.1,5.3h-10.6v14.7c0,1.4,0.1,2.5,0.2,3.3c0.1,0.9,0.4,1.5,0.8,2s1,0.8,1.8,0.9
		c0.8,0.2,1.7,0.2,2.9,0.2h5.6l-1.1,5.2h-4.4c-2.5,0-4.5-0.2-6-0.6c-1.6-0.4-2.8-1-3.7-1.9c-0.9-0.9-1.6-2.1-1.9-3.5
		s-0.5-3.3-0.5-5.5L221.3,93.2L221.3,93.2z"/>
	<path class="st2" d="M245.8,132.4V110c0-3.7,1.1-6.3,3.4-7.9s5.8-2.4,10.7-2.4c4.8,0,8.4,0.8,10.7,2.4c2.3,1.6,3.4,4.2,3.4,7.9
		v22.4h-6.4v-21.1c0-1-0.1-1.9-0.2-2.7s-0.4-1.4-0.9-2s-1.2-0.9-2.3-1.2s-2.4-0.4-4.2-0.4c-1.8,0-3.2,0.1-4.2,0.4s-1.8,0.7-2.3,1.2
		s-0.8,1.2-0.9,2s-0.2,1.7-0.2,2.7v21.1H245.8z"/>
	<path class="st2" d="M296.6,99.7c2.7,0,4.9,0.2,6.8,0.7s3.4,1.3,4.6,2.5s2.1,2.7,2.6,4.7c0.6,1.9,0.8,4.4,0.8,7.3v3.4
		c0,2.9-0.3,5.4-0.8,7.3c-0.6,1.9-1.4,3.5-2.6,4.7s-2.7,2-4.6,2.5s-4.1,0.7-6.8,0.7c-2.7,0-4.9-0.2-6.8-0.7s-3.4-1.3-4.6-2.5
		s-2.1-2.7-2.6-4.7c-0.6-1.9-0.8-4.4-0.8-7.3v-3.4c0-2.9,0.3-5.4,0.8-7.3c0.6-1.9,1.4-3.5,2.6-4.7s2.7-2,4.6-2.5
		S293.9,99.7,296.6,99.7z M304.8,114.9c0-2.2-0.1-3.9-0.3-5.2s-0.6-2.3-1.2-3s-1.4-1.2-2.5-1.4c-1.1-0.2-2.5-0.3-4.2-0.3
		s-3.1,0.1-4.2,0.3c-1.1,0.2-1.9,0.7-2.5,1.4c-0.6,0.7-1,1.7-1.2,3s-0.3,3-0.3,5.2v3.4c0,2.2,0.1,3.9,0.3,5.2c0.2,1.3,0.6,2.3,1.2,3
		s1.4,1.2,2.5,1.4c1.1,0.2,2.5,0.3,4.2,0.3s3.1-0.1,4.2-0.3c1.1-0.2,1.9-0.7,2.5-1.4c0.6-0.7,1-1.7,1.2-3s0.3-3,0.3-5.2V114.9z"/>
	<path class="st2" d="M319.3,93.2l6.4-1.2v8.7h11.7l-1.1,5.3h-10.6v14.7c0,1.4,0.1,2.5,0.2,3.3c0.1,0.9,0.4,1.5,0.8,2s1,0.8,1.8,0.9
		c0.8,0.2,1.7,0.2,2.9,0.2h5.6l-1.1,5.2h-4.4c-2.5,0-4.5-0.2-6-0.6c-1.6-0.4-2.8-1-3.7-1.9c-0.9-0.9-1.6-2.1-1.9-3.5
		s-0.5-3.3-0.5-5.5L319.3,93.2L319.3,93.2z"/>
	<path class="st2" d="M370.2,127.2c0,2-0.5,3.3-1.4,4.1c-0.9,0.8-2.5,1.2-4.9,1.2h-9.2c-4.3,0-7.4-0.8-9.2-2.4
		c-1.9-1.6-2.8-3.9-2.8-7.1v-1.4c0-3.4,1-5.9,3-7.4s5.2-2.2,9.5-2.2c2.5,0,4.4,0.2,5.8,0.6s2.4,0.8,3.1,1.3V112c0-1-0.1-1.9-0.2-2.7
		c-0.1-0.8-0.5-1.4-1-1.9c-0.6-0.5-1.4-0.9-2.4-1.2c-1-0.3-2.5-0.4-4.3-0.4c-1.7,0-3.6,0-5.5,0s-3.6,0.1-5,0.1l1.2-5.3
		c1.1,0,2.6-0.1,4.2-0.1c1.7,0,3.4,0,5.1,0c5,0,8.5,0.9,10.7,2.6c2.2,1.7,3.3,4.3,3.3,7.7L370.2,127.2L370.2,127.2z M348.7,122.9
		c0,1.4,0.4,2.5,1.3,3.2s2.4,1.1,4.7,1.1h9.3v-5.6c0-0.8-0.1-1.5-0.2-2c-0.2-0.6-0.5-1-1-1.4c-0.5-0.3-1.2-0.6-2.1-0.8
		c-0.9-0.2-2.2-0.2-3.7-0.2h-1.4c-1.4,0-2.5,0.1-3.3,0.2c-0.9,0.1-1.6,0.4-2.1,0.7c-0.5,0.3-0.9,0.8-1.1,1.4s-0.3,1.3-0.3,2.1
		L348.7,122.9L348.7,122.9z"/>
	<path class="st2" d="M395.6,113.7c1.8,0.2,3.3,0.5,4.5,1.1c1.1,0.6,2,1.3,2.6,2.1c0.6,0.8,1,1.7,1.3,2.7c0.2,1,0.3,1.9,0.3,2.8v0.9
		c0,2.9-1,5.2-3.1,6.8c-2.1,1.6-5.3,2.4-9.6,2.4c-1.8,0-4,0-6.4,0s-4.9-0.1-7.3-0.1l1.1-5.3c2.2,0,4.5,0.1,6.8,0.1s4.4,0,6.2,0
		c2.4,0,4-0.3,4.9-0.8s1.3-1.6,1.3-3.1c0-0.5-0.1-1-0.2-1.4s-0.3-0.8-0.6-1.1c-0.3-0.3-0.7-0.6-1.3-0.8c-0.6-0.2-1.4-0.4-2.3-0.5
		l-7.4-0.7c-1.5-0.1-2.8-0.4-3.9-1c-1.1-0.5-1.9-1.1-2.6-1.9s-1.1-1.6-1.4-2.5s-0.5-1.9-0.5-2.9v-1c0-2.8,1-5,2.9-6.5
		c1.9-1.6,5.1-2.4,9.5-2.4c2,0,4,0,6.1,0s4.5,0,7.2,0.1l-1.1,5.3c-1.7,0-3.2-0.1-4.5-0.1s-2.5,0-3.5,0s-1.9,0-2.7,0
		c-0.8,0-1.5,0-2.2,0c-2.1,0-3.5,0.3-4.4,0.8c-0.8,0.5-1.2,1.4-1.2,2.7c0,0.5,0.1,1,0.2,1.4s0.3,0.8,0.6,1c0.3,0.3,0.8,0.5,1.4,0.7
		s1.4,0.3,2.4,0.4L395.6,113.7z"/>
</g>
</svg>
