<svg id="Fast_Notas" data-name="Fast Notas" xmlns="http://www.w3.org/2000/svg" viewBox="0 0 377 104"><defs><style>.cls-1{fill:#1f2b35;}.cls-2{fill:#e74c3c;}.cls-3{fill:#1abc9c;}</style></defs><title>Fast Notas - Logo (Horizontal)</title><path class="cls-1" d="M178.48,227.16l-3.36-32.58a2.65,2.65,0,0,0-2.35-2.38l-32.1-3.41a4.85,4.85,0,0,0-4,1.43l-34.34,34.85a4.51,4.51,0,0,0-.14,6.29l34.32,34.82a4.35,4.35,0,0,0,6.19-.14l34.34-34.85A5,5,0,0,0,178.48,227.16Zm-36.12,31.06c-2.47,2.5-2.44,2.5-4.87,0L110,230.39c-2.35-2.39-2.44-2.44,0-4.94l28.44-28.86a3.7,3.7,0,0,1,3.1-1.07l25.31,3.11a2.18,2.18,0,0,1,1.88,1.9l3.07,25.68a3.83,3.83,0,0,1-1.05,3.15Z" transform="translate(-74.5 -188.76)"/><path class="cls-1" d="M158.13,229.09l-19.37-19.65a.6.6,0,0,1,0-.83l2.21-2.24a.57.57,0,0,1,.82,0L161.16,226a.6.6,0,0,1,0,.83l-2.21,2.24A.57.57,0,0,1,158.13,229.09Z" transform="translate(-74.5 -188.76)"/><path class="cls-1" d="M141,246.5,121.6,226.85a.6.6,0,0,1,0-.83l2.21-2.24a.57.57,0,0,1,.82,0L144,243.43a.6.6,0,0,1,0,.83l-2.21,2.24A.57.57,0,0,1,141,246.5Z" transform="translate(-74.5 -188.76)"/><path class="cls-1" d="M149.55,237.8l-19.37-19.65a.6.6,0,0,1,0-.83l2.21-2.24a.57.57,0,0,1,.82,0l19.37,19.65a.6.6,0,0,1,0,.83l-2.21,2.24A.57.57,0,0,1,149.55,237.8Z" transform="translate(-74.5 -188.76)"/><path class="cls-2" d="M111.65,280.13c3.69-2.73,6.81-5.85,8.11-10.42a15.64,15.64,0,0,0-2.18-12c.58,2.41.37,5.88-3.3,9.6-6.8,6.9-16.81,5.28-16.81,5.28,12.26-5.91,11.29-13.33,11.29-13.33a15.71,15.71,0,0,0-9.59,3.28c1-5.69,5.9-9.24,8.3-10.46a6.08,6.08,0,0,1,4.48-.21c-.17-.12-.35-.25-.51-.35-6.54-4-12.76-4.39-19.85-.26-2.89,1.68-5.82,5.42-6.19,8.75,2.4-2,4.87-3,7-2.86l-.52.51a22.27,22.27,0,0,0-6.4,13.28c-.27,1.94-.82,10.37-5.73,15.19a48.88,48.88,0,0,1-5.27,4c13.34.39,18-3.3,25.11-7a15.92,15.92,0,0,0,2.33,9.7C102.24,289.7,102,287.27,111.65,280.13Z" transform="translate(-74.5 -188.76)"/><path class="cls-3" d="M191.5,265.79h6.3v-26h10.68l1.08-5.25H197.8s-.1-4.36,1.1-6.4,4.23-2.45,12.16-2l1.08-5.25s-1.53-.12-6.9-.12c-4.38,0-7.86.71-10.17,2.63s-3.51,5.39-3.51,10.1C191.57,242.4,191.5,265.79,191.5,265.79Z" transform="translate(-74.5 -188.76)"/><path class="cls-3" d="M238.34,240.53a8.07,8.07,0,0,0-3.95-4.39,19.62,19.62,0,0,0-8.33-1.68c-2.9,0-8,0-9.9.12L215,239.83s4.52-.12,9.21-.12,6.23.42,7.51,1.49S233,244,233,247.55a11.71,11.71,0,0,0-4.09-1.48,30.51,30.51,0,0,0-9.25.05c-2.28.47-4.61,1.24-6.08,3.34a10.54,10.54,0,0,0-1.46,5.69v1.78a10,10,0,0,0,1.44,5.08,8,8,0,0,0,5,3.2,26.73,26.73,0,0,0,7,.56H233c1.57,0,3.5-.15,4.72-1.18s1.28-3.28,1.28-4v-16A11.58,11.58,0,0,0,238.34,240.53ZM233,260.65h-8.47c-4.87,0-6.52-1-6.52-4.36v-1.58c0-2.66,1.47-4,5.91-4h2.55c5.66,0,6.53,1.28,6.53,4.46Z" transform="translate(-74.5 -188.76)"/><path class="cls-1" d="M418.08,240.53a8.07,8.07,0,0,0-3.95-4.39,19.62,19.62,0,0,0-8.33-1.68c-2.9,0-8,0-9.9.12l-1.14,5.25s4.52-.12,9.21-.12,6.23.42,7.51,1.49,1.28,2.76,1.28,6.35a11.71,11.71,0,0,0-4.09-1.48,30.51,30.51,0,0,0-9.25.05c-2.28.47-4.61,1.24-6.08,3.34a10.54,10.54,0,0,0-1.46,5.69v1.78a10,10,0,0,0,1.44,5.08,8,8,0,0,0,5,3.2,26.73,26.73,0,0,0,7,.56h7.44c1.57,0,3.5-.15,4.72-1.18s1.28-3.28,1.28-4v-16A11.58,11.58,0,0,0,418.08,240.53Zm-5.32,20.13h-8.47c-4.87,0-6.52-1-6.52-4.36v-1.58c0-2.66,1.47-4,5.91-4h2.55c5.66,0,6.53,1.28,6.53,4.46Z" transform="translate(-74.5 -188.76)"/><path class="cls-3" d="M270,239.83s-6.23-.12-9.48-.12-5.87-.07-7.09.6a2.79,2.79,0,0,0-1.48,2.84c0,1.25.24,2.1.82,2.48a5.44,5.44,0,0,0,2.66,1c1.35.14,7,.64,8.78.87a9.12,9.12,0,0,1,5.23,2.23,8.24,8.24,0,0,1,2.37,6.3c0,2.55-.25,4-1.4,5.77a9,9,0,0,1-4.72,3.3,24.41,24.41,0,0,1-7.43.83c-4.43,0-12.37-.12-12.37-.12l1.08-5.25s5.59.11,10,.11,5.78-.06,7.18-.63,1.57-2.44,1.57-3.14a3.31,3.31,0,0,0-1.05-2.84c-1.09-.87-3.24-1-4.28-1.09l-6.19-.57a9.52,9.52,0,0,1-5.71-2.2,8.22,8.22,0,0,1-2.45-5.64,11.45,11.45,0,0,1,.93-5.48c1-2,3-3.69,7.11-4.33s17-.16,17-.16Z" transform="translate(-74.5 -188.76)"/><path class="cls-1" d="M449.71,239.83s-6.23-.12-9.48-.12-5.87-.07-7.09.6a2.79,2.79,0,0,0-1.48,2.84c0,1.25.24,2.1.82,2.48a5.44,5.44,0,0,0,2.66,1c1.35.14,7,.64,8.78.87a9.12,9.12,0,0,1,5.23,2.23,8.24,8.24,0,0,1,2.37,6.3c0,2.55-.25,4-1.4,5.77a9,9,0,0,1-4.72,3.3,24.41,24.41,0,0,1-7.43.83c-4.43,0-12.37-.12-12.37-.12l1.08-5.25s5.59.11,10,.11,5.78-.06,7.18-.63,1.57-2.44,1.57-3.14a3.31,3.31,0,0,0-1.05-2.84c-1.09-.87-3.24-1-4.28-1.09l-6.19-.57a9.52,9.52,0,0,1-5.71-2.2,8.22,8.22,0,0,1-2.45-5.64,11.45,11.45,0,0,1,.93-5.48c1-2,3-3.69,7.11-4.33s17-.16,17-.16Z" transform="translate(-74.5 -188.76)"/><path class="cls-3" d="M284.93,239.83h10.32l1.08-5.25h-11.4v-6.72l-6.3,1.15v25.75c0,3.89.6,6.4,1.65,7.78.77,1,2.23,3.25,10.19,3.25h4.41l1.08-5.13H290.1c-.59,0-3.05-.09-3.92-.93s-1.23-2-1.23-4.69S284.93,239.83,284.93,239.83Z" transform="translate(-74.5 -188.76)"/><path class="cls-1" d="M316.9,238.86s3.93,0,5.36.84,2.08,1.59,2.08,5.32v20.77h6.3V244.25c0-4.28-1-5.91-2.17-7.27a9.39,9.39,0,0,0-4.57-2.57,30.81,30.81,0,0,0-14,0,9.39,9.39,0,0,0-4.57,2.57c-1.14,1.36-2.17,3-2.17,7.27v21.53h6.3V245c0-3.73.66-4.44,2.08-5.32S316.9,238.86,316.9,238.86Z" transform="translate(-74.5 -188.76)"/><path class="cls-1" d="M364.42,247.38a21.69,21.69,0,0,0-1.4-7.77,8.84,8.84,0,0,0-5.94-5.17,31,31,0,0,0-14.22,0,8.84,8.84,0,0,0-5.94,5.17,21.69,21.69,0,0,0-1.4,7.77c0,2.23,0,3.06,0,4.74a24,24,0,0,0,1.29,8.36,8.89,8.89,0,0,0,5.53,5.29,29.77,29.77,0,0,0,15.25,0,8.89,8.89,0,0,0,5.53-5.29,24,24,0,0,0,1.29-8.36C364.43,250.43,364.43,249.61,364.42,247.38Zm-7,10.58a4.26,4.26,0,0,1-2.88,3.14,22.86,22.86,0,0,1-9.18,0A4.26,4.26,0,0,1,342.5,258a28.64,28.64,0,0,1-.56-7c0-3.28,0-6.79.54-8.47a4.28,4.28,0,0,1,2.65-3.13,21.45,21.45,0,0,1,9.71,0,4.28,4.28,0,0,1,2.65,3.13c.56,1.68.54,5.19.54,8.47A28.64,28.64,0,0,1,357.45,258Z" transform="translate(-74.5 -188.76)"/><path class="cls-1" d="M375.61,239.72h10.32l1.08-5.25h-11.4v-6.72l-6.3,1.15v25.75c0,3.89.6,6.4,1.65,7.78.77,1,2.23,3.25,10.19,3.25h4.41l1.08-5.13h-5.87c-.59,0-3.05-.09-3.92-.93s-1.23-2-1.23-4.69S375.61,239.72,375.61,239.72Z" transform="translate(-74.5 -188.76)"/></svg>