<svg xmlns="http://www.w3.org/2000/svg" viewBox="0 0 920.51 747.73"><defs><style>.cls-1{fill:#becce0;}.cls-2{fill:#e8edf2;}.cls-3{fill:#8e9eca;}.cls-4{fill:#fff;}.cls-5{fill:#677089;}.cls-6{fill:#b2f2e6;}.cls-7{fill:#b8c6db;}.cls-8{fill:#e0f4fc;}.cls-9{fill:#a2dfff;}.cls-10{fill:#b5c4db;}.cls-11{fill:#c5edf9;}.cls-12{fill:#bfcce1;}.cls-13{fill:#6ebdff;}.cls-14{fill:#9baad1;}.cls-15{fill:#97abc5;}.cls-16{fill:#8093bb;}.cls-17{fill:#1977cc;}.cls-18{fill:#1abc9c;}.cls-19{fill:#fdb818;}</style></defs><title>Asset 1</title><g id="Layer_2" data-name="Layer 2"><g id="Ilustração"><polygon class="cls-1" points="36.05 61.95 55.3 189.33 173.34 163.48 151.72 37.17 36.05 61.95"/><path class="cls-1" d="M884,200.62a48,48,0,0,0-56.77,10.29l-7.32-3.68a10,10,0,0,0-13.42,4.44l-.18.37a10,10,0,0,0,4.44,13.42l6.1,3.07C809,251.76,816,282.17,837.56,293c23.67,11.9,55.86-4.33,67.75-28A48,48,0,0,0,884,200.62Z"/><rect class="cls-1" x="9.16" y="272.76" width="190.91" height="267.36" transform="translate(-28.29 8.35) rotate(-4.03)"/><path class="cls-1" d="M194.72,197.21l-18-13.61a2.83,2.83,0,0,0-1.52-.8L22.87,156.22h0l-5.66-1-.44-.06a6.66,6.66,0,0,0-6.93,5.74L7.76,172.83c-.65,3.73,1.6,7.25,5,7.84l5.66,1h0l152.29,26.58h.08l.15,0h.52l.21,0h.05l.2,0H172l21.75-6a2.83,2.83,0,0,0,1-5Z"/><path class="cls-1" d="M860.86,506.67a214.65,214.65,0,0,0-10-36.52A259.48,259.48,0,0,0,838.73,443a259.53,259.53,0,0,0-2.63-29.58,216.49,216.49,0,0,0-9.1-36.75c-.92-2.69-1.79-5.07-2.58-7.11-1.46-4.28-2.73-7.31-3.36-8h0c-1.06-1.18-3.68-1.32-7.78-.41a30.47,30.47,0,0,0-7.41,2.54,5.54,5.54,0,0,0-1.79,1.78c-.54.77-1.09,1.57-3.6,2.66l-1.2.51a62.59,62.59,0,0,0-8.71,1.89,41.62,41.62,0,0,0-13.94,6.91,34.93,34.93,0,0,0-9.35,10.83q-.65,1.18-1.21,2.4c-3.24,1.27-5.28,3.19-5.8,5.49-.45,2,.35,4.09,2.26,5.89.15.14.3.27.46.4a43.93,43.93,0,0,0,1.35,15.1,36.36,36.36,0,0,0,6.52,13.28,37.38,37.38,0,0,0,10.73,9.31A43.86,43.86,0,0,0,803.64,446a47.53,47.53,0,0,0,6.35-.43c4-.07,5.45.39,5.94.67a5.65,5.65,0,0,1,2.43,2.31,4,4,0,0,1,.23.63,4.09,4.09,0,0,1,.11.66,5.65,5.65,0,0,1-1,3.2c-.29.49-1.31,1.58-4.86,3.49A44.74,44.74,0,0,0,790.65,475a37.38,37.38,0,0,0-4.82,13.36,36.36,36.36,0,0,0,.79,14.77,44.35,44.35,0,0,0,5.56,12.89c-.76,2.48-.44,4.68.92,6.19a7.4,7.4,0,0,0,5.71,2.11l.62,0a34.64,34.64,0,0,0,17.5,7.84,38.5,38.5,0,0,0,5.61.41,43.74,43.74,0,0,0,9.93-1.18,62.61,62.61,0,0,0,8.52-2.6l1.3-.14c2.73-.28,3.6.15,4.44.56a5.54,5.54,0,0,0,2.43.68,30.51,30.51,0,0,0,7.71-1.39c4-1.21,6.25-2.61,6.6-4.16.26-1.17-.41-6.15-1.74-12.57C861.48,510.22,861.19,508.51,860.86,506.67Z"/><polygon class="cls-1" points="665.06 220.97 800.55 238.43 825.68 95.76 693.12 78.06 665.06 220.97"/><rect class="cls-2" x="47.32" y="48.23" width="118.3" height="120.12" transform="translate(-20.32 24.71) rotate(-12.09)"/><path class="cls-3" d="M153,36.9a1.27,1.27,0,0,0-1.51-1L35.78,60.71a1.27,1.27,0,0,0-1,1.51L60,179.67a1.27,1.27,0,0,0,1.24,1l.27,0,115.67-24.79a1.27,1.27,0,0,0,1-1.51Zm-90.77,141-24.63-115L150.75,38.68l24.63,115Z"/><path class="cls-3" d="M98.38,77.58a31.76,31.76,0,1,0,38.79,22.63A31.79,31.79,0,0,0,98.38,77.58Zm33,45.23a28.82,28.82,0,1,1,3-21.85A28.63,28.63,0,0,1,131.36,122.8Z"/><path class="cls-4" d="M126.34,85.44l-19.87,22.85,10,28.57a30.28,30.28,0,0,0,9.84-51.42Z"/><path class="cls-3" d="M127.31,84.33a1.47,1.47,0,0,0-2.07.15l-19.87,22.85a1.47,1.47,0,0,0-.28,1.45l10,28.57a1.47,1.47,0,0,0,1.87.9,31.75,31.75,0,0,0,10.32-53.92Zm4.58,37.53a28.72,28.72,0,0,1-14.49,13.09l-9.25-26.34,18.32-21.07a28.81,28.81,0,0,1,5.42,34.31Z"/><rect class="cls-4" x="19.7" y="260.83" width="190.91" height="267.36" transform="translate(-45.11 16.07) rotate(-6.68)"/><path class="cls-5" d="M196.93,250.34a2.54,2.54,0,0,0-2.52-2.24l-.3,0L4.5,270.32a2.54,2.54,0,0,0-2.23,2.82l31.1,265.55a2.54,2.54,0,0,0,2.52,2.24l.3,0,189.61-22.21a2.54,2.54,0,0,0,2.23-2.82ZM35.9,538.39,4.8,272.84l189.61-22.21,31.1,265.55Z"/><path class="cls-3" d="M179.63,353.79,92.31,364a1.47,1.47,0,0,0,.17,2.93h.17L180,356.71a1.47,1.47,0,0,0-.34-2.92Z"/><path class="cls-3" d="M181.21,367.33,93.89,377.55a1.47,1.47,0,0,0,.17,2.93h.17l87.32-10.23a1.47,1.47,0,1,0-.34-2.92Z"/><path class="cls-3" d="M113.25,389l-17.77,2.08a1.47,1.47,0,0,0,.17,2.93h.17l17.77-2.08a1.47,1.47,0,0,0-.34-2.92Z"/><path class="cls-3" d="M73.34,367.72a1.47,1.47,0,0,0-1.63-1.29l-27.49,3.22a1.47,1.47,0,0,0-1.29,1.63l3.22,27.49a1.47,1.47,0,0,0,1.46,1.3h.17l27.49-3.22a1.47,1.47,0,0,0,1.29-1.63ZM48.89,397,46,372.4l24.57-2.88,2.88,24.57Z"/><path class="cls-3" d="M174,305.89,86.7,316.11a1.47,1.47,0,0,0,.17,2.93H87l87.32-10.23a1.47,1.47,0,0,0-.34-2.92Z"/><path class="cls-3" d="M175.6,319.42,88.28,329.65a1.47,1.47,0,0,0,.17,2.93h.17l87.32-10.23a1.47,1.47,0,0,0-.34-2.92Z"/><path class="cls-3" d="M107.64,341.11l-17.77,2.08a1.47,1.47,0,0,0,.17,2.93h.17L108,344a1.47,1.47,0,1,0-.34-2.92Z"/><path class="cls-3" d="M67.73,319.82a1.47,1.47,0,0,0-1.63-1.29L38.6,321.75a1.47,1.47,0,0,0-1.29,1.63l3.22,27.49a1.47,1.47,0,0,0,1.46,1.3h.17l27.49-3.22a1.47,1.47,0,0,0,1.29-1.63ZM43.28,349.07,40.4,324.5,65,321.62l2.88,24.57Z"/><polygon class="cls-6" points="54.88 337.03 46.5 330.41 43.55 334.14 51.93 340.75 51.93 340.75 55.66 343.7 58.6 339.97 72.27 322.5 68.54 319.55 54.88 337.03"/><path class="cls-6" d="M73.18,321.34l-3.73-2.95a1.47,1.47,0,0,0-2.07.25L54.63,335l-7.21-5.7a1.47,1.47,0,0,0-2.07.24l-2.95,3.73a1.47,1.47,0,0,0,.24,2.07l12.1,9.56a1.47,1.47,0,0,0,.91.32h.17a1.47,1.47,0,0,0,1-.55l3-3.74L73.42,323.4A1.47,1.47,0,0,0,73.18,321.34ZM57.45,339.06l-2,2.57-9.79-7.74,1.12-1.42,7.22,5.7a1.47,1.47,0,0,0,2.07-.25l12.75-16.31,1.42,1.12Z"/><polygon class="cls-6" points="60.84 384.93 52.47 378.31 49.52 382.04 57.9 388.65 57.9 388.65 61.63 391.6 64.57 387.87 78.23 370.4 74.5 367.45 60.84 384.93"/><path class="cls-6" d="M79.15,369.24l-3.73-2.95a1.47,1.47,0,0,0-2.07.25L60.6,382.85l-7.21-5.7a1.47,1.47,0,0,0-2.07.24l-2.95,3.73a1.47,1.47,0,0,0,.24,2.07l12.1,9.56a1.47,1.47,0,0,0,.91.32h.17a1.47,1.47,0,0,0,1-.55l3-3.74L79.39,371.3A1.47,1.47,0,0,0,79.15,369.24ZM63.42,387l-2,2.57-9.79-7.74,1.12-1.42,7.22,5.7a1.47,1.47,0,0,0,2.07-.25l12.75-16.31,1.42,1.12Z"/><path class="cls-3" d="M185.24,401.69,97.92,411.91a1.47,1.47,0,0,0,.17,2.93h.17l87.32-10.23a1.47,1.47,0,0,0-.34-2.92Z"/><path class="cls-3" d="M186.82,415.23,99.5,425.45a1.47,1.47,0,0,0,.17,2.93h.17l87.32-10.23a1.47,1.47,0,0,0-.34-2.92Z"/><path class="cls-3" d="M168.85,431.06,101.09,439a1.47,1.47,0,0,0,.17,2.93h.17L169.19,434a1.47,1.47,0,1,0-.34-2.92Z"/><path class="cls-3" d="M78.95,415.62a1.47,1.47,0,0,0-1.63-1.29l-27.49,3.22a1.47,1.47,0,0,0-1.29,1.63l3.22,27.49a1.47,1.47,0,0,0,1.46,1.3h.17l27.49-3.22a1.47,1.47,0,0,0,1.29-1.63ZM54.5,444.87,51.62,420.3l24.57-2.88L79.07,442Z"/><path class="cls-3" d="M190.85,449.59l-87.32,10.23a1.47,1.47,0,0,0,.17,2.93h.17l87.32-10.23a1.47,1.47,0,1,0-.34-2.92Z"/><path class="cls-3" d="M146.77,468.48l-41.66,4.88a1.47,1.47,0,0,0,.17,2.93h.17l41.66-4.88a1.47,1.47,0,0,0-.34-2.92Z"/><path class="cls-3" d="M84.56,463.52a1.47,1.47,0,0,0-1.63-1.29l-27.49,3.22a1.47,1.47,0,0,0-1.29,1.63l3.22,27.49a1.47,1.47,0,0,0,1.46,1.3H59l27.49-3.22A1.47,1.47,0,0,0,87.78,491ZM60.11,492.77,57.23,468.2l24.57-2.88,2.88,24.57Z"/><path class="cls-7" d="M529.57,486.84a1.27,1.27,0,0,0-1.27,1.27V616a38,38,0,0,1-38,38,40.57,40.57,0,0,0-19.45,5,1.27,1.27,0,1,0,1.22,2.23,38,38,0,0,1,18.22-4.65A40.52,40.52,0,0,0,530.84,616V488.11A1.27,1.27,0,0,0,529.57,486.84Z"/><path class="cls-4" d="M218.13,643.71h-4.06a1.27,1.27,0,0,0,0,2.54h4.06a1.27,1.27,0,1,0,0-2.54Z"/><path class="cls-4" d="M241.11,643.71h-4.06a1.27,1.27,0,0,0,0,2.54h4.06a1.27,1.27,0,1,0,0-2.54Z"/><path class="cls-4" d="M252.6,643.71h-4.06a1.27,1.27,0,0,0,0,2.54h4.06a1.27,1.27,0,1,0,0-2.54Z"/><path class="cls-4" d="M275.59,643.71h-4.06a1.27,1.27,0,0,0,0,2.54h4.06a1.27,1.27,0,1,0,0-2.54Z"/><path class="cls-4" d="M264.1,643.71H260a1.27,1.27,0,0,0,0,2.54h4.06a1.27,1.27,0,1,0,0-2.54Z"/><path class="cls-4" d="M229.62,643.71h-4.06a1.27,1.27,0,0,0,0,2.54h4.06a1.27,1.27,0,1,0,0-2.54Z"/><path class="cls-4" d="M160.67,643.71h-4.06a1.27,1.27,0,1,0,0,2.54h4.06a1.27,1.27,0,0,0,0-2.54Z"/><path class="cls-4" d="M206.64,643.71h-4.06a1.27,1.27,0,0,0,0,2.54h4.06a1.27,1.27,0,1,0,0-2.54Z"/><path class="cls-4" d="M172.16,643.71h-4.06a1.27,1.27,0,0,0,0,2.54h4.06a1.27,1.27,0,0,0,0-2.54Z"/><path class="cls-4" d="M195.15,643.71h-4.06a1.27,1.27,0,0,0,0,2.54h4.06a1.27,1.27,0,1,0,0-2.54Z"/><path class="cls-4" d="M183.65,643.71H179.6a1.27,1.27,0,0,0,0,2.54h4.06a1.27,1.27,0,1,0,0-2.54Z"/><path class="cls-4" d="M287.08,643.71H283a1.27,1.27,0,0,0,0,2.54h4.06a1.27,1.27,0,1,0,0-2.54Z"/><path class="cls-4" d="M326.46,586.14a1.27,1.27,0,0,0-1.27,1.27v4.06a1.27,1.27,0,1,0,2.54,0v-4.06A1.27,1.27,0,0,0,326.46,586.14Z"/><path class="cls-4" d="M298.09,642.31a37.08,37.08,0,0,1-3.82.86,1.27,1.27,0,0,0,.21,2.52l.22,0a39.75,39.75,0,0,0,4.08-.92,1.27,1.27,0,0,0-.69-2.44Z"/><path class="cls-4" d="M326.46,574.65a1.27,1.27,0,0,0-1.27,1.27V580a1.27,1.27,0,0,0,2.54,0v-4.06A1.27,1.27,0,0,0,326.46,574.65Z"/><path class="cls-4" d="M326.46,551.67a1.27,1.27,0,0,0-1.27,1.27V557a1.27,1.27,0,0,0,2.54,0v-4.06A1.27,1.27,0,0,0,326.46,551.67Z"/><path class="cls-4" d="M326.46,540.18a1.27,1.27,0,0,0-1.27,1.27v4.06a1.27,1.27,0,1,0,2.54,0v-4.06A1.27,1.27,0,0,0,326.46,540.18Z"/><path class="cls-4" d="M326.46,528.68a1.27,1.27,0,0,0-1.27,1.27V534a1.27,1.27,0,0,0,2.54,0V530A1.27,1.27,0,0,0,326.46,528.68Z"/><path class="cls-4" d="M326.46,563.16a1.27,1.27,0,0,0-1.27,1.27v4.06a1.27,1.27,0,1,0,2.54,0v-4.06A1.27,1.27,0,0,0,326.46,563.16Z"/><path class="cls-4" d="M308.17,637.75a37.32,37.32,0,0,1-3.4,2,1.27,1.27,0,1,0,1.15,2.26,39.88,39.88,0,0,0,3.63-2.09,1.27,1.27,0,1,0-1.38-2.13Z"/><path class="cls-4" d="M326.46,597.63a1.27,1.27,0,0,0-1.27,1.27V603a1.27,1.27,0,1,0,2.54,0V598.9A1.27,1.27,0,0,0,326.46,597.63Z"/><path class="cls-4" d="M318.26,630.26a1.27,1.27,0,0,0-1.79.15,37.68,37.68,0,0,1-2.68,2.86,1.27,1.27,0,1,0,1.76,1.83,40.2,40.2,0,0,0,2.86-3.06A1.27,1.27,0,0,0,318.26,630.26Z"/><path class="cls-4" d="M326.39,609.12a1.27,1.27,0,0,0-1.39,1.14,37.37,37.37,0,0,1-.6,3.87,1.27,1.27,0,0,0,1,1.5l.26,0a1.27,1.27,0,0,0,1.24-1,39.91,39.91,0,0,0,.64-4.14A1.27,1.27,0,0,0,326.39,609.12Z"/><path class="cls-4" d="M323.92,620.31a1.27,1.27,0,0,0-1.66.67,37.24,37.24,0,0,1-1.72,3.52,1.27,1.27,0,1,0,2.22,1.23A39.82,39.82,0,0,0,324.6,622,1.27,1.27,0,0,0,323.92,620.31Z"/><path class="cls-4" d="M564.34,652.65a25.81,25.81,0,1,0,25.81,25.81A25.83,25.83,0,0,0,564.34,652.65Zm0,49.07a23.27,23.27,0,1,1,23.27-23.27A23.29,23.29,0,0,1,564.34,701.72Z"/><path class="cls-4" d="M564.34,523.19a1.27,1.27,0,0,0-1.27,1.27V671.31a1.27,1.27,0,1,0,2.54,0V524.46A1.27,1.27,0,0,0,564.34,523.19Z"/><path class="cls-4" d="M564.34,670a8.41,8.41,0,1,0,8.41,8.41A8.42,8.42,0,0,0,564.34,670Zm0,14.29a5.87,5.87,0,1,1,5.87-5.87A5.88,5.88,0,0,1,564.34,684.33Z"/><path class="cls-4" d="M90.53,579A50.15,50.15,0,1,0,126,593.67,49.82,49.82,0,0,0,90.53,579Zm33.66,83.81a47.61,47.61,0,1,1,13.94-33.66A47.3,47.3,0,0,1,124.19,662.79Z"/><path class="cls-4" d="M90.53,595.67A33.46,33.46,0,1,0,124,629.13,33.5,33.5,0,0,0,90.53,595.67Zm0,64.38a30.92,30.92,0,1,1,30.92-30.92A31,31,0,0,1,90.53,660Z"/><path class="cls-4" d="M90.53,613.62a15.5,15.5,0,1,0,15.5,15.5A15.52,15.52,0,0,0,90.53,613.62Zm0,28.46a13,13,0,1,1,13-13A13,13,0,0,1,90.53,642.09Z"/><path class="cls-4" d="M698.83,366.74a3.88,3.88,0,1,0,3.88,3.88A3.89,3.89,0,0,0,698.83,366.74Zm0,5.23a1.34,1.34,0,1,1,1.34-1.34A1.35,1.35,0,0,1,698.83,372Z"/><path class="cls-4" d="M876.11,500.72A3.88,3.88,0,1,0,880,504.6,3.89,3.89,0,0,0,876.11,500.72Zm0,5.23a1.34,1.34,0,1,1,1.34-1.34A1.35,1.35,0,0,1,876.11,505.94Z"/><path class="cls-4" d="M46.15,221.71a6.41,6.41,0,1,0,6.41,6.41A6.42,6.42,0,0,0,46.15,221.71Zm0,10.28A3.87,3.87,0,1,1,50,228.12,3.88,3.88,0,0,1,46.15,232Z"/><path class="cls-4" d="M717.59,148.74a6.41,6.41,0,1,0,6.41,6.41A6.42,6.42,0,0,0,717.59,148.74Zm0,10.28a3.87,3.87,0,1,1,3.87-3.87A3.88,3.88,0,0,1,717.59,159Z"/><path class="cls-4" d="M685.85,345a6.41,6.41,0,1,0,6.41,6.41A6.42,6.42,0,0,0,685.85,345Zm0,10.28a3.87,3.87,0,1,1,3.87-3.87A3.88,3.88,0,0,1,685.85,355.28Z"/><line class="cls-8" x1="262.95" y1="589.93" x2="224.36" y2="589.93"/><path class="cls-9" d="M263,588.67h-38.6a1.27,1.27,0,1,0,0,2.54H263a1.27,1.27,0,1,0,0-2.54Z"/><line class="cls-8" x1="194.54" y1="589.93" x2="209.17" y2="589.93"/><path class="cls-9" d="M209.17,588.67H194.54a1.27,1.27,0,1,0,0,2.54h14.63a1.27,1.27,0,1,0,0-2.54Z"/><line class="cls-8" x1="179.35" y1="589.93" x2="156.85" y2="589.93"/><path class="cls-7" d="M179.35,588.67h-22.5a1.27,1.27,0,0,0,0,2.54h22.5a1.27,1.27,0,1,0,0-2.54Z"/><line class="cls-8" x1="207.48" y1="604.14" x2="255.99" y2="604.14"/><path class="cls-9" d="M256,602.87H207.48a1.27,1.27,0,0,0,0,2.54H256a1.27,1.27,0,1,0,0-2.54Z"/><line class="cls-8" x1="169.79" y1="604.14" x2="192.29" y2="604.14"/><path class="cls-7" d="M192.29,602.87h-22.5a1.27,1.27,0,0,0,0,2.54h22.5a1.27,1.27,0,0,0,0-2.54Z"/><line class="cls-8" x1="259.69" y1="575.73" x2="217.04" y2="575.73"/><path class="cls-9" d="M259.69,574.46H217a1.27,1.27,0,0,0,0,2.54h42.65a1.27,1.27,0,0,0,0-2.54Z"/><line class="cls-8" x1="187.23" y1="575.73" x2="217.04" y2="575.73"/><path class="cls-9" d="M217,574.46H187.23a1.27,1.27,0,0,0,0,2.54H217a1.27,1.27,0,0,0,0-2.54Z"/><line class="cls-8" x1="172.04" y1="575.73" x2="149.1" y2="575.73"/><path class="cls-7" d="M172,574.46H149.1a1.27,1.27,0,0,0,0,2.54H172a1.27,1.27,0,1,0,0-2.54Z"/><line class="cls-8" x1="743.12" y1="418.32" x2="698.11" y2="418.32"/><path class="cls-7" d="M743.12,417.05h-45a1.27,1.27,0,0,0,0,2.54h45a1.27,1.27,0,1,0,0-2.54Z"/><line class="cls-8" x1="663.34" y1="418.32" x2="680.4" y2="418.32"/><path class="cls-7" d="M680.4,417.05H663.34a1.27,1.27,0,0,0,0,2.54H680.4a1.27,1.27,0,1,0,0-2.54Z"/><line class="cls-8" x1="645.63" y1="418.32" x2="619.38" y2="418.32"/><path class="cls-7" d="M645.63,417.05H619.38a1.27,1.27,0,0,0,0,2.54h26.24a1.27,1.27,0,1,0,0-2.54Z"/><line class="cls-8" x1="678.43" y1="401.96" x2="735" y2="401.96"/><path class="cls-7" d="M735,400.69H678.43a1.27,1.27,0,0,0,0,2.54H735a1.27,1.27,0,1,0,0-2.54Z"/><line class="cls-8" x1="634.47" y1="401.96" x2="660.72" y2="401.96"/><path class="cls-7" d="M660.72,400.69H634.47a1.27,1.27,0,1,0,0,2.54h26.24a1.27,1.27,0,1,0,0-2.54Z"/><line class="cls-8" x1="739.32" y1="434.69" x2="689.58" y2="434.69"/><path class="cls-7" d="M739.32,433.42H689.58a1.27,1.27,0,1,0,0,2.54h49.74a1.27,1.27,0,0,0,0-2.54Z"/><line class="cls-8" x1="654.81" y1="434.69" x2="689.58" y2="434.69"/><path class="cls-7" d="M689.58,433.42H654.81a1.27,1.27,0,1,0,0,2.54h34.77a1.27,1.27,0,1,0,0-2.54Z"/><line class="cls-8" x1="637.1" y1="434.69" x2="591.17" y2="434.69"/><path class="cls-7" d="M637.1,433.42H591.17a1.27,1.27,0,1,0,0,2.54H637.1a1.27,1.27,0,1,0,0-2.54Z"/><circle class="cls-2" cx="257.24" cy="76.04" r="5.09"/><path class="cls-10" d="M257.24,69.68A6.36,6.36,0,1,0,263.6,76,6.37,6.37,0,0,0,257.24,69.68Zm0,10.18A3.82,3.82,0,1,1,261.06,76,3.82,3.82,0,0,1,257.24,79.86Z"/><circle class="cls-2" cx="237.31" cy="76.04" r="5.09"/><path class="cls-10" d="M237.31,69.68A6.36,6.36,0,1,0,243.67,76,6.37,6.37,0,0,0,237.31,69.68Zm0,10.18A3.82,3.82,0,1,1,241.13,76,3.82,3.82,0,0,1,237.31,79.86Z"/><circle class="cls-2" cx="217.38" cy="76.04" r="5.09"/><path class="cls-10" d="M217.38,69.68A6.36,6.36,0,1,0,223.74,76,6.37,6.37,0,0,0,217.38,69.68Zm0,10.18A3.82,3.82,0,1,1,221.2,76,3.82,3.82,0,0,1,217.38,79.86Z"/><circle class="cls-8" cx="268.75" cy="225.3" r="5.09"/><path class="cls-9" d="M268.75,218.95a6.36,6.36,0,1,0,6.36,6.36A6.37,6.37,0,0,0,268.75,218.95Zm0,10.18a3.82,3.82,0,1,1,3.82-3.82A3.82,3.82,0,0,1,268.75,229.12Z"/><circle class="cls-2" cx="248.82" cy="225.3" r="5.09"/><path class="cls-10" d="M248.82,218.95a6.36,6.36,0,1,0,6.36,6.36A6.37,6.37,0,0,0,248.82,218.95Zm0,10.18a3.82,3.82,0,1,1,3.82-3.82A3.82,3.82,0,0,1,248.82,229.12Z"/><circle class="cls-2" cx="228.89" cy="225.3" r="5.09"/><path class="cls-10" d="M228.89,218.95a6.36,6.36,0,1,0,6.36,6.36A6.37,6.37,0,0,0,228.89,218.95Zm0,10.18a3.82,3.82,0,1,1,3.82-3.82A3.82,3.82,0,0,1,228.89,229.12Z"/><circle class="cls-8" cx="812.82" cy="101.66" r="5.09"/><path class="cls-9" d="M812.82,95.3a6.36,6.36,0,1,0,6.36,6.36A6.37,6.37,0,0,0,812.82,95.3Zm0,10.18a3.82,3.82,0,1,1,3.82-3.82A3.82,3.82,0,0,1,812.82,105.48Z"/><circle class="cls-8" cx="812.82" cy="121.59" r="5.09"/><path class="cls-9" d="M812.82,115.23a6.36,6.36,0,1,0,6.36,6.36A6.37,6.37,0,0,0,812.82,115.23Zm0,10.18a3.82,3.82,0,1,1,3.82-3.82A3.82,3.82,0,0,1,812.82,125.41Z"/><circle class="cls-8" cx="812.82" cy="141.52" r="5.09"/><path class="cls-9" d="M812.82,135.16a6.36,6.36,0,1,0,6.36,6.36A6.37,6.37,0,0,0,812.82,135.16Zm0,10.18a3.82,3.82,0,1,1,3.82-3.82A3.82,3.82,0,0,1,812.82,145.34Z"/><circle class="cls-8" cx="792.89" cy="101.66" r="5.09"/><path class="cls-9" d="M792.89,95.3a6.36,6.36,0,1,0,6.36,6.36A6.37,6.37,0,0,0,792.89,95.3Zm0,10.18a3.82,3.82,0,1,1,3.82-3.82A3.82,3.82,0,0,1,792.89,105.48Z"/><circle class="cls-8" cx="772.95" cy="101.66" r="5.09"/><path class="cls-9" d="M773,95.3a6.36,6.36,0,1,0,6.36,6.36A6.37,6.37,0,0,0,773,95.3Zm0,10.18a3.82,3.82,0,1,1,3.82-3.82A3.82,3.82,0,0,1,773,105.48Z"/><polygon class="cls-2" points="198.41 15.04 198.41 42.58 222.26 56.35 246.11 42.58 246.11 15.04 222.26 1.27 198.41 15.04"/><path class="cls-10" d="M246.75,13.94,222.89.17a1.27,1.27,0,0,0-1.27,0L197.77,13.94a1.27,1.27,0,0,0-.63,1.1V42.58a1.27,1.27,0,0,0,.63,1.1l23.85,13.77a1.27,1.27,0,0,0,1.27,0l23.85-13.77a1.27,1.27,0,0,0,.63-1.1V15A1.27,1.27,0,0,0,246.75,13.94Zm-1.9,27.91-22.58,13-22.58-13V15.77l22.58-13,22.58,13Z"/><polygon class="cls-4" points="198.41 15.04 222.26 28.81 246.11 15.04 222.26 1.27 198.41 15.04"/><path class="cls-10" d="M246.75,13.94,222.89.17a1.27,1.27,0,0,0-1.27,0L197.77,13.94a1.27,1.27,0,0,0,0,2.2l23.85,13.77a1.27,1.27,0,0,0,1.27,0l23.85-13.77a1.27,1.27,0,0,0,0-2.2Zm-24.49,13.4L200.94,15,222.26,2.74,243.57,15Z"/><polygon class="cls-2" points="198.41 42.58 222.26 56.35 222.26 28.81 198.41 15.04 198.41 42.58"/><path class="cls-10" d="M222.89,27.71,199,13.94a1.27,1.27,0,0,0-1.9,1.1V42.58a1.27,1.27,0,0,0,.63,1.1l23.85,13.77a1.27,1.27,0,0,0,1.9-1.1V28.81A1.27,1.27,0,0,0,222.89,27.71ZM221,54.16,199.67,41.85V17.24L221,29.55Z"/><path class="cls-4" d="M919.24,311.79H887.56a1.27,1.27,0,1,0,0,2.54h31.68a1.27,1.27,0,0,0,0-2.54Z"/><path class="cls-4" d="M875.1,311.79h-12a1.27,1.27,0,0,0,0,2.54h12a1.27,1.27,0,0,0,0-2.54Z"/><path class="cls-4" d="M850.63,311.79H809.17a1.27,1.27,0,0,0,0,2.54h41.46a1.27,1.27,0,1,0,0-2.54Z"/><path class="cls-4" d="M913.53,295.42H873.71a1.27,1.27,0,0,0,0,2.54h39.82a1.27,1.27,0,1,0,0-2.54Z"/><path class="cls-4" d="M861.25,295.42H811.09a1.27,1.27,0,0,0,0,2.54h50.16a1.27,1.27,0,1,0,0-2.54Z"/><path class="cls-4" d="M916.57,328.15h-35a1.27,1.27,0,1,0,0,2.54h35a1.27,1.27,0,0,0,0-2.54Z"/><path class="cls-4" d="M881.56,328.15H857.09a1.27,1.27,0,1,0,0,2.54h24.47a1.27,1.27,0,0,0,0-2.54Z"/><path class="cls-4" d="M844.62,328.15H812.3a1.27,1.27,0,0,0,0,2.54h32.32a1.27,1.27,0,1,0,0-2.54Z"/><path class="cls-4" d="M790.56,296.26l-23.85-13.77a1.27,1.27,0,0,0-1.27,0l-23.85,13.77a1.27,1.27,0,0,0-.63,1.1V324.9a1.27,1.27,0,0,0,.63,1.1l23.85,13.77a1.27,1.27,0,0,0,1.27,0L790.56,326a1.27,1.27,0,0,0,.63-1.1V297.36A1.27,1.27,0,0,0,790.56,296.26Zm-1.9,27.91-22.58,13-22.58-13V298.1l22.58-13,22.58,13Z"/><path class="cls-4" d="M790.56,296.26l-23.85-13.77a1.27,1.27,0,0,0-1.27,0l-23.85,13.77a1.27,1.27,0,0,0,0,2.2l23.85,13.77a1.27,1.27,0,0,0,1.27,0l23.85-13.77a1.27,1.27,0,0,0,0-2.2Zm-24.49,13.4-21.31-12.31,21.31-12.31,21.31,12.31Z"/><path class="cls-4" d="M766.71,310l-23.85-13.77a1.27,1.27,0,0,0-1.9,1.1V324.9a1.27,1.27,0,0,0,.63,1.1l23.85,13.77a1.27,1.27,0,0,0,1.9-1.1V311.13A1.27,1.27,0,0,0,766.71,310Zm-1.9,26.44-21.31-12.31V299.56l21.31,12.31Z"/><path class="cls-9" d="M550,222.63a1.27,1.27,0,0,0-1.27,1.27V228a1.27,1.27,0,1,0,2.54,0V223.9A1.27,1.27,0,0,0,550,222.63Z"/><path class="cls-9" d="M550,234.12a1.27,1.27,0,0,0-1.27,1.27v4.06a1.27,1.27,0,1,0,2.54,0v-4.06A1.27,1.27,0,0,0,550,234.12Z"/><path class="cls-9" d="M550,211.14a1.27,1.27,0,0,0-1.27,1.27v4.06a1.27,1.27,0,0,0,2.54,0v-4.06A1.27,1.27,0,0,0,550,211.14Z"/><path class="cls-9" d="M550,188.16a1.27,1.27,0,0,0-1.27,1.27v4.06a1.27,1.27,0,0,0,2.54,0v-4.06A1.27,1.27,0,0,0,550,188.16Z"/><path class="cls-9" d="M550,199.65a1.27,1.27,0,0,0-1.27,1.27V205a1.27,1.27,0,0,0,2.54,0v-4.06A1.27,1.27,0,0,0,550,199.65Z"/><path class="cls-9" d="M550,280.09a1.27,1.27,0,0,0-1.27,1.27v4.06a1.27,1.27,0,1,0,2.54,0v-4.06A1.27,1.27,0,0,0,550,280.09Z"/><path class="cls-9" d="M550,176.66a1.27,1.27,0,0,0-1.27,1.27V182a1.27,1.27,0,0,0,2.54,0v-4.06A1.27,1.27,0,0,0,550,176.66Z"/><path class="cls-9" d="M550,268.6a1.27,1.27,0,0,0-1.27,1.27v4.06a1.27,1.27,0,1,0,2.54,0v-4.06A1.27,1.27,0,0,0,550,268.6Z"/><path class="cls-9" d="M550,257.11a1.27,1.27,0,0,0-1.27,1.27v4.06a1.27,1.27,0,1,0,2.54,0v-4.06A1.27,1.27,0,0,0,550,257.11Z"/><path class="cls-9" d="M550,245.61a1.27,1.27,0,0,0-1.27,1.27v4.06a1.27,1.27,0,1,0,2.54,0v-4.06A1.27,1.27,0,0,0,550,245.61Z"/><path class="cls-9" d="M585.4,105h0a37.27,37.27,0,0,0-4.19.24,1.27,1.27,0,0,0,.14,2.53h.15a34.72,34.72,0,0,1,3.9-.22,1.27,1.27,0,0,0,0-2.54Z"/><path class="cls-9" d="M573.71,106.88a36.65,36.65,0,0,0-3.9,1.57,1.27,1.27,0,1,0,1.08,2.3,34.11,34.11,0,0,1,3.63-1.46,1.27,1.27,0,1,0-.81-2.41Z"/><path class="cls-9" d="M596.9,105h-4.06a1.27,1.27,0,1,0,0,2.54h4.06a1.27,1.27,0,1,0,0-2.54Z"/><path class="cls-9" d="M608.39,105h-4.06a1.27,1.27,0,0,0,0,2.54h4.06a1.27,1.27,0,1,0,0-2.54Z"/><path class="cls-9" d="M550,165.17a1.27,1.27,0,0,0-1.27,1.27v4.06a1.27,1.27,0,1,0,2.54,0v-4.06A1.27,1.27,0,0,0,550,165.17Z"/><path class="cls-9" d="M563.24,112.43a37,37,0,0,0-3.19,2.72A1.27,1.27,0,0,0,561.8,117a34.54,34.54,0,0,1,3-2.54,1.27,1.27,0,0,0-1.54-2Z"/><path class="cls-9" d="M556.84,120.68a1.27,1.27,0,0,0-1.76.33,36.83,36.83,0,0,0-2.16,3.59,1.27,1.27,0,1,0,2.25,1.18,34.32,34.32,0,0,1,2-3.35A1.27,1.27,0,0,0,556.84,120.68Z"/><path class="cls-9" d="M550,142.19a1.27,1.27,0,0,0-1.27,1.27v4.06a1.27,1.27,0,1,0,2.54,0v-4.06A1.27,1.27,0,0,0,550,142.19Z"/><path class="cls-9" d="M550,153.68a1.27,1.27,0,0,0-1.27,1.27V159a1.27,1.27,0,1,0,2.54,0V155A1.27,1.27,0,0,0,550,153.68Z"/><path class="cls-9" d="M551.63,130.87a1.27,1.27,0,0,0-1.57.88,36.7,36.7,0,0,0-.9,4.1,1.27,1.27,0,0,0,1.05,1.45l.2,0a1.27,1.27,0,0,0,1.25-1.07,34.19,34.19,0,0,1,.84-3.82A1.27,1.27,0,0,0,551.63,130.87Z"/><circle class="cls-7" cx="837.24" cy="637.79" r="26.32" transform="translate(-213.53 698.01) rotate(-40.58)"/><circle class="cls-2" cx="805.36" cy="667.88" r="28.06" transform="translate(10.28 1347.96) rotate(-80.21)"/><path class="cls-4" d="M810.35,639a29.33,29.33,0,1,0,23.92,33.89A29.14,29.14,0,0,0,810.35,639ZM833,672.65h0Zm-1.25-.22a26.78,26.78,0,1,1-26.46-31.35,27.12,27.12,0,0,1,4.61.4A26.82,26.82,0,0,1,831.76,672.43Z"/><path class="cls-2" d="M805.36,667.88l-2.53,27.94a28.05,28.05,0,0,0,28.08-39.55Z"/><path class="cls-4" d="M830.38,655.11l-25.54,11.61a1.27,1.27,0,0,0-.74,1l-2.53,27.94a1.27,1.27,0,0,0,1.15,1.38q1.34.12,2.68.12a29.32,29.32,0,0,0,26.66-41.46A1.27,1.27,0,0,0,830.38,655.11Zm1.38,17.32a26.79,26.79,0,0,1-27.55,22.2l2.35-25.91L830.25,658A26.64,26.64,0,0,1,831.76,672.43Z"/><path class="cls-4" d="M677.69,53.44a1.27,1.27,0,0,0-.94,1.53,13.12,13.12,0,0,1-2.23,10.52c-4.75.81-8.8,3.52-9,6.08a1.27,1.27,0,0,0,1.18,1.35h.09a1.27,1.27,0,0,0,1.27-1.18c.08-.73,2.72-3.19,7.33-3.83a1.27,1.27,0,0,0,.84-.5,15.73,15.73,0,0,0,3-13A1.27,1.27,0,0,0,677.69,53.44Zm-2.45,13.23h0Z"/><path class="cls-4" d="M689.83,65.49A13.11,13.11,0,0,1,687.6,55a1.27,1.27,0,0,0-2.47-.59,15.73,15.73,0,0,0,3,13,1.27,1.27,0,0,0,.84.5c4.61.64,7.26,3.09,7.33,3.82a1.27,1.27,0,0,0,1.27,1.18h.09a1.27,1.27,0,0,0,1.18-1.35C698.64,69,694.58,66.3,689.83,65.49Z"/><path class="cls-4" d="M661.43,36.31c-3.36-.43-7.93-1.5-10.58-4.16-3.5-3.5-4.43-10.8-4.43-14.56a.83.83,0,0,1,.83-.83h7.67a1.27,1.27,0,0,0,0-2.54h-7.67a3.37,3.37,0,0,0-3.37,3.37c0,1.14.15,11.32,5.18,16.35,3.16,3.16,8.3,4.4,12.05,4.88h.16a1.27,1.27,0,0,0,.16-2.53Z"/><path class="cls-4" d="M716.8,14.23h-7.67a1.27,1.27,0,0,0,0,2.54h7.67a.83.83,0,0,1,.83.83c0,3.76-.93,11.06-4.43,14.56-2.65,2.66-7.22,3.73-10.58,4.16a1.27,1.27,0,0,0,.16,2.53h.16c3.75-.48,8.89-1.72,12.05-4.88,5-5,5.18-15.21,5.18-16.35A3.37,3.37,0,0,0,716.8,14.23Z"/><path class="cls-4" d="M710.12,7.71H654.23A1.27,1.27,0,0,0,653,9.08a106.34,106.34,0,0,0,5,23.29c2.35,6.83,5.28,12.28,8.71,16.22,4.41,5.05,9.63,7.62,15.54,7.62,5.35,0,10.23-2.57,14.51-7.63,3.31-3.92,6.28-9.37,8.81-16.18a123.9,123.9,0,0,0,5.89-23.25,1.27,1.27,0,0,0-1.26-1.44Zm-27.95,46c-5.14,0-9.72-2.26-13.61-6.73-3.21-3.68-6-8.85-8.23-15.35a105.92,105.92,0,0,1-4.7-21.34h53C707.37,17.93,700.46,53.67,682.18,53.67Z"/><path class="cls-4" d="M692.11,24.93l-5.47-.68-2.34-5a1.27,1.27,0,0,0-2.3,0l-2.34,5-5.47.68a1.27,1.27,0,0,0-.71,2.19l4,3.76-1,5.41a1.27,1.27,0,0,0,1.86,1.35L683.16,35,688,37.64a1.27,1.27,0,0,0,1.86-1.35l-1-5.41,4-3.76a1.27,1.27,0,0,0-.71-2.19Zm-5.56,4.57a1.27,1.27,0,0,0-.38,1.17l.66,3.43-3.06-1.69a1.27,1.27,0,0,0-1.23,0l-3.06,1.69.66-3.43a1.27,1.27,0,0,0-.38-1.17l-2.55-2.39,3.47-.43a1.27,1.27,0,0,0,1-.72l1.48-3.17L684.65,26a1.27,1.27,0,0,0,1,.72l3.47.43Z"/><path class="cls-4" d="M703.74,70.63H659.92a1.27,1.27,0,0,0-1.27,1.27V84a1.27,1.27,0,0,0,1.27,1.27h43.82A1.27,1.27,0,0,0,705,84V71.9A1.27,1.27,0,0,0,703.74,70.63Zm-1.27,12.11H661.19V73.17h41.28Z"/><path class="cls-4" d="M689,246.27a6.15,6.15,0,0,0-4.38,1.81l-1.55,1.55a1.27,1.27,0,1,0,1.79,1.8l1.55-1.55a3.65,3.65,0,1,1,5.16,5.16l-1.55,1.55a1.27,1.27,0,0,0,1.8,1.79l1.54-1.55A6.19,6.19,0,0,0,689,246.27Z"/><path class="cls-4" d="M624.12,248.08a6.19,6.19,0,1,0-8.76,8.75l1.55,1.55a1.27,1.27,0,0,0,1.8-1.79L617.16,255a3.65,3.65,0,1,1,5.16-5.16l1.55,1.55a1.27,1.27,0,1,0,1.79-1.8Z"/><path class="cls-4" d="M658.57,236.42a1.27,1.27,0,0,0-1.27,1.27V242a1.27,1.27,0,1,0,2.54,0v-4.28A1.27,1.27,0,0,0,658.57,236.42Z"/><path class="cls-4" d="M648.73,236.42a1.27,1.27,0,0,0-1.27,1.27V242a1.27,1.27,0,1,0,2.54,0v-4.28A1.27,1.27,0,0,0,648.73,236.42Z"/><path class="cls-4" d="M654.2,240.8a51.58,51.58,0,1,0,36.47,15.11A51.24,51.24,0,0,0,654.2,240.8Zm34.68,86.26a49,49,0,1,1,14.36-34.68A48.72,48.72,0,0,1,688.87,327.06Z"/><path class="cls-4" d="M654.2,250.64a41.73,41.73,0,1,0,29.51,12.22A41.46,41.46,0,0,0,654.2,250.64Zm27.72,69.45a39.2,39.2,0,1,1,11.48-27.72A38.94,38.94,0,0,1,681.91,320.1Z"/><path class="cls-4" d="M660.76,229.08H646.54a4.55,4.55,0,1,0,0,9.1h14.22a4.55,4.55,0,1,0,0-9.1Zm0,6.56H646.54a2,2,0,1,1,0-4h14.22a2,2,0,1,1,0,4Z"/><path class="cls-4" d="M654.2,255.9a1.27,1.27,0,0,0-1.27,1.27v5.28a1.27,1.27,0,1,0,2.54,0v-5.28A1.27,1.27,0,0,0,654.2,255.9Z"/><path class="cls-4" d="M654.2,321a1.27,1.27,0,0,0-1.27,1.27v5.28a1.27,1.27,0,1,0,2.54,0v-5.28A1.27,1.27,0,0,0,654.2,321Z"/><path class="cls-4" d="M689.4,291.11h-5.28a1.27,1.27,0,0,0,0,2.54h5.28a1.27,1.27,0,0,0,0-2.54Z"/><path class="cls-4" d="M624.26,291.11H619a1.27,1.27,0,1,0,0,2.54h5.28a1.27,1.27,0,1,0,0-2.54Z"/><path class="cls-4" d="M637.69,261.25a1.27,1.27,0,1,0-2.2,1.27l2.64,4.57a1.27,1.27,0,1,0,2.2-1.27Z"/><path class="cls-4" d="M670.26,317.67a1.27,1.27,0,1,0-2.2,1.27l2.64,4.57a1.27,1.27,0,1,0,2.2-1.27Z"/><path class="cls-4" d="M684.05,273.67l-4.57,2.64a1.27,1.27,0,1,0,1.27,2.2l4.57-2.64a1.27,1.27,0,0,0-1.27-2.2Z"/><path class="cls-4" d="M627.64,306.24l-4.57,2.64a1.27,1.27,0,1,0,1.27,2.2l4.57-2.64a1.27,1.27,0,0,0-1.27-2.2Z"/><path class="cls-4" d="M628.91,276.31l-4.57-2.64a1.27,1.27,0,0,0-1.27,2.2l4.57,2.64a1.27,1.27,0,0,0,1.27-2.2Z"/><path class="cls-4" d="M685.32,308.88l-4.57-2.64a1.27,1.27,0,0,0-1.27,2.2l4.57,2.64a1.27,1.27,0,0,0,1.27-2.2Z"/><path class="cls-4" d="M672.43,260.79a1.27,1.27,0,0,0-1.73.46l-2.64,4.57a1.27,1.27,0,1,0,2.2,1.27l2.64-4.57A1.27,1.27,0,0,0,672.43,260.79Z"/><path class="cls-4" d="M639.86,317.2a1.27,1.27,0,0,0-1.73.46l-2.64,4.57a1.27,1.27,0,1,0,2.2,1.27l2.64-4.57A1.27,1.27,0,0,0,639.86,317.2Z"/><path class="cls-4" d="M673.78,269.13l-18.41,14.36a1.27,1.27,0,1,0,1.56,2l18.45-14.4.1-.08a.92.92,0,1,1,1.27,1.33l-.08.08L661.25,290a1.27,1.27,0,0,0,1.91,1.68l15.4-17.52a3.46,3.46,0,0,0-4.77-5Z"/><path class="cls-4" d="M662.72,294.11a1.27,1.27,0,1,0-1.93,1.65l16.69,19.53,0,.05a1.67,1.67,0,0,1,.54,1.1h0a1.7,1.7,0,0,1-1.06-.59l-.06-.06-18.64-17.17a1.27,1.27,0,1,0-1.72,1.87l18.62,17.15a4.12,4.12,0,0,0,2.87,1.34,2.53,2.53,0,0,0,1.78-.68c1.17-1.12,1-3.17-.45-4.68Z"/><path class="cls-4" d="M654.2,283.45a8.93,8.93,0,1,0,8.93,8.93A8.94,8.94,0,0,0,654.2,283.45Zm0,15.31a6.39,6.39,0,1,1,6.39-6.39A6.39,6.39,0,0,1,654.2,298.76Z"/><path class="cls-9" d="M337,157.79H309.3a40.06,40.06,0,0,0-40.06,40.06V367a1.27,1.27,0,1,0,2.54,0V197.86a37.52,37.52,0,0,1,37.52-37.52H337a1.27,1.27,0,1,0,0-2.54Z"/><circle class="cls-11" cx="377.41" cy="157.02" r="52.86"/><path class="cls-4" d="M393.07,138.45a19.08,19.08,0,0,0-16,8.41,19.08,19.08,0,0,0-16-8.41,18,18,0,0,0-12.76,5A17.14,17.14,0,0,0,343.55,156c0,13.7,10.79,21.6,20.14,26.94a115.56,115.56,0,0,1,11.85,7.83,2.52,2.52,0,0,0,3.08,0,115.59,115.59,0,0,1,11.85-7.83c9.35-5.34,20.09-13.24,20.14-26.94a17.14,17.14,0,0,0-4.78-12.49A18,18,0,0,0,393.07,138.45Zm-16,50.28h0Zm12.12-8a118.51,118.51,0,0,0-12.13,8,118.51,118.51,0,0,0-12.13-8c-8.76-5-18.82-12.34-18.86-24.74a14.67,14.67,0,0,1,4-10.69,15.48,15.48,0,0,1,11-4.29,16.9,16.9,0,0,1,8.13,2,17.13,17.13,0,0,1,6.74,6.86,1.27,1.27,0,0,0,2.23,0,17.13,17.13,0,0,1,6.74-6.86,16.9,16.9,0,0,1,8.13-2,15.48,15.48,0,0,1,11,4.29,14.66,14.66,0,0,1,4,10.69C408.06,162.48,405.89,171.18,389.22,180.71Z"/><path class="cls-4" d="M421.71,162.12H393.37a1.27,1.27,0,0,0-1,.49l-4.5,5.81L386.11,132a1.27,1.27,0,0,0-2.52-.17l-7.46,40.8-7.65-48.75A1.27,1.27,0,0,0,366,124l-2.4,38.16H333.11a1.27,1.27,0,1,0,0,2.54h31.64a1.27,1.27,0,0,0,1.27-1.19l1.75-27.79,7,44.7a1.27,1.27,0,0,0,1.24,1.07h0a1.27,1.27,0,0,0,1.25-1l6.82-37.3L385.5,172a1.27,1.27,0,0,0,2.27.72l6.22-8h27.72a1.27,1.27,0,0,0,0-2.54Z"/><path class="cls-7" d="M478.92,680.53h-9.49a27.7,27.7,0,0,0-1.57-3.8l6.71-6.71a5.79,5.79,0,0,0,0-8.19l-4.15-4.15a5.79,5.79,0,0,0-8.19,0l-6.71,6.71a27.75,27.75,0,0,0-3.8-1.57v-9.49a5.8,5.8,0,0,0-5.79-5.79h-5.87a5.8,5.8,0,0,0-5.79,5.79v9.49a27.76,27.76,0,0,0-3.8,1.57l-6.71-6.71a5.8,5.8,0,0,0-8.19,0l-4.15,4.15a5.79,5.79,0,0,0,0,8.19l6.71,6.71a27.74,27.74,0,0,0-1.57,3.8h-9.49a5.8,5.8,0,0,0-5.79,5.79v5.87a5.8,5.8,0,0,0,5.79,5.79h9.49a27.75,27.75,0,0,0,1.57,3.8l-6.71,6.71a5.8,5.8,0,0,0,0,8.19l4.15,4.15a5.8,5.8,0,0,0,8.19,0l6.71-6.71a27.77,27.77,0,0,0,3.8,1.57v9.49a5.8,5.8,0,0,0,5.79,5.79h5.87a5.8,5.8,0,0,0,5.79-5.79v-9.49a27.77,27.77,0,0,0,3.8-1.57l6.71,6.71a5.79,5.79,0,0,0,8.19,0l4.15-4.15a5.8,5.8,0,0,0,0-8.19l-6.71-6.71a27.71,27.71,0,0,0,1.57-3.8h9.49a5.8,5.8,0,0,0,5.79-5.79v-5.87A5.8,5.8,0,0,0,478.92,680.53Zm3.25,11.66a3.25,3.25,0,0,1-3.25,3.25H468.5a1.27,1.27,0,0,0-1.22.91,25.13,25.13,0,0,1-2.09,5.05,1.27,1.27,0,0,0,.22,1.51l7.37,7.37a3.25,3.25,0,0,1,0,4.6L468.63,719a3.25,3.25,0,0,1-4.6,0l-7.37-7.37a1.27,1.27,0,0,0-1.51-.22,25.19,25.19,0,0,1-5.05,2.09,1.27,1.27,0,0,0-.91,1.22v10.42a3.25,3.25,0,0,1-3.25,3.25h-5.87a3.25,3.25,0,0,1-3.25-3.25V714.75a1.27,1.27,0,0,0-.91-1.22,25.18,25.18,0,0,1-5.05-2.09,1.27,1.27,0,0,0-1.51.22L422,719a3.25,3.25,0,0,1-4.6,0l-4.15-4.15a3.25,3.25,0,0,1,0-4.6l7.37-7.37a1.27,1.27,0,0,0,.22-1.51,25.18,25.18,0,0,1-2.09-5.05,1.27,1.27,0,0,0-1.22-.91H407.08a3.25,3.25,0,0,1-3.25-3.25v-5.87a3.25,3.25,0,0,1,3.25-3.25h10.42a1.27,1.27,0,0,0,1.22-.91,25.16,25.16,0,0,1,2.09-5.05,1.27,1.27,0,0,0-.22-1.51l-7.37-7.37a3.25,3.25,0,0,1,0-4.6l4.15-4.15a3.25,3.25,0,0,1,4.6,0l7.37,7.37a1.27,1.27,0,0,0,1.51.22A25.19,25.19,0,0,1,435.9,665a1.27,1.27,0,0,0,.91-1.22V653.34a3.25,3.25,0,0,1,3.25-3.25h5.87a3.25,3.25,0,0,1,3.25,3.25v10.42a1.27,1.27,0,0,0,.91,1.22,25.16,25.16,0,0,1,5.05,2.09,1.27,1.27,0,0,0,1.51-.22l7.37-7.37a3.25,3.25,0,0,1,4.6,0l4.15,4.15a3.25,3.25,0,0,1,0,4.6l-7.37,7.37a1.27,1.27,0,0,0-.22,1.51,25.12,25.12,0,0,1,2.09,5.05,1.27,1.27,0,0,0,1.22.91h10.42a3.25,3.25,0,0,1,3.25,3.25Z"/><path class="cls-7" d="M443,680.6a8.76,8.76,0,1,0,8.76,8.76A8.77,8.77,0,0,0,443,680.6Zm0,15a6.22,6.22,0,1,1,6.22-6.22A6.23,6.23,0,0,1,443,695.58Z"/><path class="cls-7" d="M443,670.42a18.84,18.84,0,1,0,18.84,18.84A18.86,18.86,0,0,0,443,670.42Zm0,35.14a16.3,16.3,0,1,1,16.3-16.3A16.32,16.32,0,0,1,443,705.56Z"/><circle class="cls-12" cx="398.07" cy="653.33" r="24.31"/><path class="cls-4" d="M410,645.69l-11.32-6.54a1.27,1.27,0,0,0-1.27,0l-11.32,6.54a1.27,1.27,0,0,0-.63,1.1v13.08a1.27,1.27,0,0,0,.63,1.1l11.32,6.54a1.27,1.27,0,0,0,1.27,0L410,661a1.27,1.27,0,0,0,.63-1.1V646.79A1.27,1.27,0,0,0,410,645.69Zm-1.9,13.44-10.05,5.81L388,659.13V647.52l10.05-5.81,10.05,5.81Z"/><path class="cls-4" d="M410,645.69l-11.32-6.54a1.27,1.27,0,0,0-1.27,0l-11.32,6.54a1.27,1.27,0,0,0,0,2.2l11.32,6.54a1.27,1.27,0,0,0,1.27,0L410,647.89a1.27,1.27,0,0,0,0-2.2Zm-12,6.17-8.79-5.07,8.79-5.07,8.79,5.07Z"/><path class="cls-4" d="M398.7,652.23l-11.32-6.54a1.27,1.27,0,0,0-1.9,1.1v13.08a1.27,1.27,0,0,0,.63,1.1l11.32,6.54a1.27,1.27,0,0,0,1.9-1.1V653.33A1.27,1.27,0,0,0,398.7,652.23Zm-1.9,12L388,659.13V649l8.79,5.07Z"/><path class="cls-4" d="M454.9,562.23a1.27,1.27,0,1,0-2.43.72,35.39,35.39,0,0,0,1.43,4,1.27,1.27,0,1,0,2.33-1A32.82,32.82,0,0,1,454.9,562.23Z"/><path class="cls-4" d="M459.76,572.11a1.27,1.27,0,0,0-2.06,1.49,35.8,35.8,0,0,0,2.66,3.26,1.27,1.27,0,0,0,1.87-1.72A33.23,33.23,0,0,1,459.76,572.11Z"/><path class="cls-4" d="M481.36,585.4a32.86,32.86,0,0,1-3.81-.83,1.27,1.27,0,1,0-.69,2.44,35.41,35.41,0,0,0,4.11.9l.2,0a1.27,1.27,0,0,0,.19-2.52Z"/><path class="cls-4" d="M470.92,581.89a33.11,33.11,0,0,1-3.32-2,1.27,1.27,0,0,0-1.46,2.08,35.64,35.64,0,0,0,3.58,2.21,1.27,1.27,0,1,0,1.2-2.24Z"/><path class="cls-4" d="M504.12,585.79h-4.06a1.27,1.27,0,0,0,0,2.54h4.06a1.27,1.27,0,0,0,0-2.54Z"/><path class="cls-4" d="M492.63,585.79h-4.06a1.27,1.27,0,0,0,0,2.54h4.06a1.27,1.27,0,0,0,0-2.54Z"/><path class="cls-4" d="M452.28,510.6a1.27,1.27,0,0,0,1.27-1.27v-4.06a1.27,1.27,0,0,0-2.54,0v4.06A1.27,1.27,0,0,0,452.28,510.6Z"/><path class="cls-4" d="M452.28,499.11a1.27,1.27,0,0,0,1.27-1.27v-4.06a1.27,1.27,0,0,0-2.54,0v4.06A1.27,1.27,0,0,0,452.28,499.11Z"/><path class="cls-4" d="M452.28,487.61a1.27,1.27,0,0,0,1.27-1.27v-3.19a1.27,1.27,0,0,0-2.54,0v3.19A1.27,1.27,0,0,0,452.28,487.61Z"/><path class="cls-4" d="M515.61,585.79h-4.06a1.27,1.27,0,0,0,0,2.54h4.06a1.27,1.27,0,1,0,0-2.54Z"/><path class="cls-4" d="M453.63,555.2c-.06-.78-.08-1.57-.08-2.36v-1.61a1.27,1.27,0,1,0-2.54,0v1.61c0,.84,0,1.7.09,2.54a1.27,1.27,0,0,0,1.26,1.18h.09A1.27,1.27,0,0,0,453.63,555.2Z"/><path class="cls-4" d="M452.28,545.07a1.27,1.27,0,0,0,1.27-1.27v-4.06a1.27,1.27,0,0,0-2.54,0v4.06A1.27,1.27,0,0,0,452.28,545.07Z"/><path class="cls-4" d="M452.28,533.58a1.27,1.27,0,0,0,1.27-1.27v-4.06a1.27,1.27,0,1,0-2.54,0v4.06A1.27,1.27,0,0,0,452.28,533.58Z"/><path class="cls-4" d="M452.28,522.09a1.27,1.27,0,0,0,1.27-1.27v-4.06a1.27,1.27,0,1,0-2.54,0v4.06A1.27,1.27,0,0,0,452.28,522.09Z"/><path class="cls-4" d="M561.58,585.79h-4.06a1.27,1.27,0,1,0,0,2.54h4.06a1.27,1.27,0,0,0,0-2.54Z"/><path class="cls-4" d="M619,585.79H615a1.27,1.27,0,1,0,0,2.54H619a1.27,1.27,0,1,0,0-2.54Z"/><path class="cls-4" d="M642,585.79H638a1.27,1.27,0,0,0,0,2.54H642a1.27,1.27,0,0,0,0-2.54Z"/><path class="cls-4" d="M630.53,585.79h-4.06a1.27,1.27,0,0,0,0,2.54h4.06a1.27,1.27,0,0,0,0-2.54Z"/><path class="cls-4" d="M653.51,585.79h-4.06a1.27,1.27,0,0,0,0,2.54h4.06a1.27,1.27,0,0,0,0-2.54Z"/><path class="cls-4" d="M688,585.79h-4.06a1.27,1.27,0,0,0,0,2.54H688a1.27,1.27,0,0,0,0-2.54Z"/><path class="cls-4" d="M676.5,585.79h-4.06a1.27,1.27,0,0,0,0,2.54h4.06a1.27,1.27,0,0,0,0-2.54Z"/><path class="cls-4" d="M665,585.79h-4.06a1.27,1.27,0,1,0,0,2.54H665a1.27,1.27,0,0,0,0-2.54Z"/><path class="cls-4" d="M538.6,585.79h-4.06a1.27,1.27,0,0,0,0,2.54h4.06a1.27,1.27,0,0,0,0-2.54Z"/><path class="cls-4" d="M550.09,585.79H546a1.27,1.27,0,0,0,0,2.54h4.06a1.27,1.27,0,0,0,0-2.54Z"/><path class="cls-4" d="M573.07,585.79H569a1.27,1.27,0,0,0,0,2.54h4.06a1.27,1.27,0,0,0,0-2.54Z"/><path class="cls-4" d="M607.55,585.79h-4.06a1.27,1.27,0,0,0,0,2.54h4.06a1.27,1.27,0,1,0,0-2.54Z"/><path class="cls-4" d="M527.11,585.79H523a1.27,1.27,0,1,0,0,2.54h4.06a1.27,1.27,0,0,0,0-2.54Z"/><path class="cls-4" d="M596.06,585.79H592a1.27,1.27,0,0,0,0,2.54h4.06a1.27,1.27,0,1,0,0-2.54Z"/><path class="cls-4" d="M584.56,585.79h-4.06a1.27,1.27,0,0,0,0,2.54h4.06a1.27,1.27,0,0,0,0-2.54Z"/><path class="cls-2" d="M796.8,556.64H738.15A5.36,5.36,0,0,0,732.8,562v41.51a5.36,5.36,0,0,0,5.36,5.36h17v18.84L774,608.87H796.8a5.36,5.36,0,0,0,5.36-5.36V562A5.36,5.36,0,0,0,796.8,556.64Z"/><path class="cls-7" d="M796.8,555.37H738.15a6.64,6.64,0,0,0-6.63,6.63v41.51a6.64,6.64,0,0,0,6.63,6.63h15.7v17.57a1.27,1.27,0,0,0,2.17.9l18.46-18.46H796.8a6.64,6.64,0,0,0,6.63-6.63V562A6.64,6.64,0,0,0,796.8,555.37Zm4.09,48.14a4.09,4.09,0,0,1-4.09,4.09H774a1.27,1.27,0,0,0-.9.37l-16.67,16.67V608.87a1.27,1.27,0,0,0-1.27-1.27h-17a4.09,4.09,0,0,1-4.09-4.09V562a4.09,4.09,0,0,1,4.09-4.09H796.8a4.09,4.09,0,0,1,4.09,4.09Z"/><line class="cls-8" x1="786.15" y1="571.44" x2="748.81" y2="571.44"/><path class="cls-7" d="M786.15,570.17H748.81a1.27,1.27,0,0,0,0,2.54h37.34a1.27,1.27,0,1,0,0-2.54Z"/><line class="cls-8" x1="786.15" y1="583.71" x2="748.81" y2="583.71"/><path class="cls-9" d="M786.15,582.44H748.81a1.27,1.27,0,0,0,0,2.54h37.34a1.27,1.27,0,0,0,0-2.54Z"/><line class="cls-8" x1="786.15" y1="583.71" x2="748.81" y2="583.71"/><path class="cls-7" d="M786.15,582.44H748.81a1.27,1.27,0,0,0,0,2.54h37.34a1.27,1.27,0,0,0,0-2.54Z"/><line class="cls-8" x1="769.23" y1="595.98" x2="748.81" y2="595.98"/><path class="cls-7" d="M769.23,594.71H748.81a1.27,1.27,0,1,0,0,2.54h20.43a1.27,1.27,0,1,0,0-2.54Z"/><path class="cls-4" d="M828,510.56H788.93a4.85,4.85,0,0,0-4.84,4.84v27.68a4.85,4.85,0,0,0,4.84,4.84h14.71l12.19,12.19a1.27,1.27,0,0,0,2.17-.9V547.93h10a4.85,4.85,0,0,0,4.84-4.84V515.41A4.85,4.85,0,0,0,828,510.56Zm2.3,32.53a2.31,2.31,0,0,1-2.3,2.3H816.73a1.27,1.27,0,0,0-1.27,1.27v9.5l-10.39-10.39a1.27,1.27,0,0,0-.9-.37H788.93a2.31,2.31,0,0,1-2.3-2.3V515.41a2.31,2.31,0,0,1,2.3-2.3H828a2.31,2.31,0,0,1,2.3,2.3Z"/><path class="cls-4" d="M821.55,522.81H795.42a1.27,1.27,0,1,0,0,2.54h26.13a1.27,1.27,0,1,0,0-2.54Z"/><path class="cls-4" d="M811.63,533.88h-16.2a1.27,1.27,0,1,0,0,2.54h16.2a1.27,1.27,0,0,0,0-2.54Z"/><polygon class="cls-4" points="171.05 199.13 192.85 193.15 174.51 179.3 171.05 199.13"/><path class="cls-3" d="M194.38,191.12,176,177.28a2.54,2.54,0,0,0-4,1.59l-3.46,19.82a2.54,2.54,0,0,0,3.17,2.88l21.8-6a2.54,2.54,0,0,0,.86-4.47Zm-23.33,8,3.46-19.82,18.34,13.84Z"/><polygon class="cls-12" points="182.26 196.05 192.85 193.15 183.94 186.42 182.26 196.05"/><path class="cls-9" d="M12.46,155.07,10.38,167a3.77,3.77,0,0,0,2.7,4.56l158,27.58,3.47-19.86-158-27.57A3.77,3.77,0,0,0,12.46,155.07Z"/><path class="cls-13" d="M175,176.77,17,149.19a5.53,5.53,0,0,0-.95-.08A6.38,6.38,0,0,0,10,154.64L7.88,166.55a6.91,6.91,0,0,0,.82,4.71,5.77,5.77,0,0,0,3.95,2.79l158,27.58a2.54,2.54,0,0,0,2.94-2.06L177,179.7a2.54,2.54,0,0,0-2.06-2.94Zm-3.9,22.36-158-27.58a3.77,3.77,0,0,1-2.7-4.56l2.08-11.91A3.89,3.89,0,0,1,16,151.65a3,3,0,0,1,.51,0l158,27.57Z"/><path class="cls-2" d="M12.46,155.07,10.38,167a3.77,3.77,0,0,0,2.7,4.56l158,27.58,3.47-19.86-158-27.57A3.77,3.77,0,0,0,12.46,155.07Z"/><path class="cls-3" d="M175,176.77,17,149.19a5.53,5.53,0,0,0-.95-.08A6.38,6.38,0,0,0,10,154.64L7.88,166.55a6.91,6.91,0,0,0,.82,4.71,5.77,5.77,0,0,0,3.95,2.79l158,27.58a2.54,2.54,0,0,0,2.94-2.06L177,179.7a2.54,2.54,0,0,0-2.06-2.94Zm-3.9,22.36-158-27.58a3.77,3.77,0,0,1-2.7-4.56l2.08-11.91A3.89,3.89,0,0,1,16,151.65a3,3,0,0,1,.51,0l158,27.57Z"/><path class="cls-4" d="M12.46,155.07,10.38,167a3.77,3.77,0,0,0,2.7,4.56l5.66,1,3.47-19.86-5.66-1A3.77,3.77,0,0,0,12.46,155.07Z"/><path class="cls-3" d="M22.64,150.18l-5.66-1a5.53,5.53,0,0,0-.95-.08A6.38,6.38,0,0,0,10,154.64L7.88,166.55a6.91,6.91,0,0,0,.82,4.71,5.77,5.77,0,0,0,3.95,2.79l5.66,1A2.54,2.54,0,0,0,21.24,173l3.47-19.86a2.54,2.54,0,0,0-2.06-2.94Zm-3.9,22.36-5.66-1a3.77,3.77,0,0,1-2.7-4.56l2.08-11.91A3.89,3.89,0,0,1,16,151.65a3,3,0,0,1,.51,0l5.66,1Z"/><line class="cls-9" x1="183.72" y1="185.12" x2="181.71" y2="196.62"/><path class="cls-3" d="M183.94,183.87a1.27,1.27,0,0,0-1.47,1l-2,11.5a1.27,1.27,0,0,0,1,1.47l.22,0a1.27,1.27,0,0,0,1.25-1.05l2-11.5A1.27,1.27,0,0,0,183.94,183.87Z"/><line class="cls-9" x1="21.66" y1="166.64" x2="172.45" y2="192.96"/><path class="cls-3" d="M172.67,191.71,21.88,165.39a1.27,1.27,0,1,0-.44,2.5l150.79,26.32.22,0a1.27,1.27,0,0,0,.22-2.52Z"/><line class="cls-9" x1="22.95" y1="159.22" x2="173.74" y2="185.54"/><path class="cls-3" d="M174,184.29,23.17,158a1.27,1.27,0,1,0-.44,2.5l150.79,26.32.22,0a1.27,1.27,0,0,0,.22-2.52Z"/><path class="cls-1" d="M822.83,358.11l-12.77,5.17a521.74,521.74,0,0,1,14.66,57c4.28,22.63,5.67,46.21,2.73,54.42-6.4,17.9-29.2,28.51-32,37.52-1.65,5.28,2.16,8.2,8.67,6.93,7.08-1.39,21.66-14.6,32.82-42.09,4.72-11.63,4.31-43.85.73-67.5A210.21,210.21,0,0,0,822.83,358.11Z"/><path class="cls-5" d="M824,357.58a1.27,1.27,0,0,0-1.63-.64l-12.77,5.17a1.27,1.27,0,0,0-.73,1.57,524.63,524.63,0,0,1,14.62,56.85c4.34,22.95,5.54,46.06,2.79,53.76-3.59,10-12.77,18-20.15,24.31-5.68,4.89-10.58,9.11-11.87,13.25-.82,2.64-.47,5,1,6.63a7.78,7.78,0,0,0,6,2.25,16.36,16.36,0,0,0,3.13-.32c4.27-.84,10-5.09,15.6-11.68,4.76-5.56,11.78-15.48,18.15-31.18,3-7.51,3.55-21.84,3.57-29.72a263,263,0,0,0-2.76-38.45A213.58,213.58,0,0,0,824,357.58Zm11.78,119C829.52,492,822.68,501.66,818,507.07c-7.71,9-12.79,10.57-14.16,10.84-3.11.61-5.58.2-6.76-1.12s-.84-2.94-.46-4.18c1.07-3.45,5.72-7.45,11.1-12.09,7.61-6.55,17.07-14.71,20.89-25.38,2.93-8.2,1.81-31.37-2.68-55.09a526.89,526.89,0,0,0-14.34-56l10.54-4.26a213.51,213.51,0,0,1,14.24,50C840.72,438.16,839.56,467.24,835.77,476.58Z"/><path class="cls-1" d="M818.91,407.85c-23.15-18.55-42.33-23-49.18-20.73-6.31,2.07-8.21,6.47-4.19,10.28,6.84,6.49,31.92,4.62,46.24,17.13,6.57,5.73,16.87,27,24.17,48.84a521.75,521.75,0,0,1,15,56.91l13.67-1.72a210.21,210.21,0,0,0-12.16-52.15C844.07,444,828.7,415.7,818.91,407.85Z"/><path class="cls-5" d="M853.67,466a263,263,0,0,0-16.35-34.91c-3.86-6.86-11.29-19.13-17.62-24.2-13.23-10.6-24.19-15.84-31.06-18.36-8.14-3-15.18-3.93-19.32-2.58-3.94,1.29-6.44,3.47-7,6.14-.48,2.14.36,4.36,2.37,6.27,3.15,3,9.49,4.28,16.83,5.78,9.54,1.95,21.42,4.37,29.45,11.38,6.16,5.38,16.4,26.14,23.8,48.28a524.82,524.82,0,0,1,15,56.75,1.27,1.27,0,0,0,1.24,1h.16l13.67-1.72a1.27,1.27,0,0,0,1.11-1.35A213.59,213.59,0,0,0,853.67,466ZM852,518.88A527,527,0,0,0,837.16,463c-7.66-22.89-18-43.66-24.54-49.39-8.54-7.45-20.78-10-30.62-12-7-1.42-13-2.65-15.59-5.13-.94-.9-2-2.3-1.64-3.87.39-1.73,2.34-3.29,5.35-4.28a12.19,12.19,0,0,1,3.72-.47c2.86,0,7.36.6,13.93,3s17.39,7.57,30.35,18c9.75,7.81,25,36.3,33.18,58a213.69,213.69,0,0,1,12,50.59Z"/><path class="cls-2" d="M832.89,442c-.79-4.76,1.23-20.64,1.78-28.93,1.33-19.8-10-52.85-11.84-55s-12,1-14.09,2.29-1,2.57-5.5,4.5l-1.31.56a61.07,61.07,0,0,0-8.7,1.88c-21,6.07-31.16,24.8-25.64,46,5.14,19.73,24.85,30,44.76,27.3,2.51,0,5.22.09,6.44.79a6.47,6.47,0,0,1,2.78,2.68,4.88,4.88,0,0,1,.29.78,5,5,0,0,1,.13.83,6.47,6.47,0,0,1-1.12,3.7c-.72,1.2-3,2.64-5.23,3.83-18.69,7.35-30.88,25.94-25.74,45.67,5.52,21.18,23.5,32.59,44.82,27.62a61.07,61.07,0,0,0,8.51-2.6l1.42-.15c4.83-.49,4.49,1.13,7,1.24s12.8-2.11,13.42-4.88-5.67-37.12-16.48-53.75C844,459.42,834.52,446.55,832.89,442Z"/><path class="cls-5" d="M849.63,465.7c-1.36-2.09-3.15-4.69-5.06-7.45-4.36-6.32-9.29-13.47-10.45-16.56-.49-3.27.32-11.92,1-19.56.31-3.33.61-6.48.78-9,.4-6-.1-16.8-4.75-34.52-2.59-9.87-6.05-19.86-7.41-21.37-.43-.49-1.75-2-8.17-.53a30.88,30.88,0,0,0-7.53,2.59,5.88,5.88,0,0,0-1.91,1.89c-.53.76-1,1.48-3.43,2.52l-1.15.49a63.1,63.1,0,0,0-8.71,1.9c-10.61,3.06-18.74,9.26-23.54,17.93A36.25,36.25,0,0,0,765,397.93a44.16,44.16,0,0,0,1.31,15.72A36.76,36.76,0,0,0,773,427.07a37.78,37.78,0,0,0,10.84,9.41,45.14,45.14,0,0,0,28.65,5.41c4.05-.07,5.34.41,5.71.62a5.26,5.26,0,0,1,2.27,2.14,3.61,3.61,0,0,1,.2.55,3.68,3.68,0,0,1,.09.59,5.26,5.26,0,0,1-.94,3c-.22.36-1.11,1.41-4.68,3.33a45.14,45.14,0,0,0-22.37,18.7,37.78,37.78,0,0,0-4.87,13.5,36.76,36.76,0,0,0,.8,14.94,44.16,44.16,0,0,0,6.52,14.36A35.65,35.65,0,0,0,824.91,529a44.41,44.41,0,0,0,10.08-1.2,63.06,63.06,0,0,0,8.53-2.59l1.24-.13c2.61-.27,3.4.12,4.23.52a5.88,5.88,0,0,0,2.59.72,30.92,30.92,0,0,0,7.84-1.41c6.3-1.89,6.73-3.82,6.87-4.46h0c.44-2-1.41-12.39-4-22.27C857.74,480.41,852.89,470.71,849.63,465.7Zm15.42,54.44h0Zm-1.24-.27c-.08.3-1.18,1.39-5.14,2.58a28.69,28.69,0,0,1-7,1.3,3.44,3.44,0,0,1-1.59-.46c-1-.49-2.27-1.11-5.6-.77l-1.43.15a1.27,1.27,0,0,0-.32.08,60.22,60.22,0,0,1-8.33,2.55c-10.08,2.35-19.55,1-27.38-3.85s-13.29-12.74-15.92-22.86a34.18,34.18,0,0,1,3.8-26.51,42.6,42.6,0,0,1,21.18-17.66l.13-.06c3.12-1.67,5-3.07,5.72-4.29a7.77,7.77,0,0,0,1.3-4.43,5.65,5.65,0,0,0-.54-2.09,7.77,7.77,0,0,0-3.29-3.24c-1.13-.65-3.16-1-6.2-1h-1a42.6,42.6,0,0,1-27.1-5.08A34.18,34.18,0,0,1,768.82,413c-2.64-10.12-1.69-19.71,2.74-27.73s12.07-13.85,22-16.72a60.29,60.29,0,0,1,8.52-1.84,1.27,1.27,0,0,0,.32-.09l1.32-.56c3.08-1.33,3.87-2.48,4.51-3.4a3.44,3.44,0,0,1,1.16-1.18,28.66,28.66,0,0,1,6.73-2.27c4.05-.9,5.54-.48,5.74-.26.68.84,3.85,8.85,6.9,20.53,2,7.81,5.36,22.54,4.62,33.51-.16,2.45-.46,5.59-.77,8.9-.78,8.27-1.58,16.82-1,20.32a1.27,1.27,0,0,0,.06.22c1.2,3.35,6.08,10.42,10.79,17.25,1.89,2.74,3.68,5.33,5,7.39,6,9.21,10.29,23.69,12.31,31.5C862.85,510.25,864,518.77,863.81,519.87Z"/><path class="cls-4" d="M795.22,376.57C779.48,381.1,771.91,395.12,776,411s20.83,23.55,36.78,19.82c11.63-2.72,15.06-13.21,11.75-31.84C821.69,382.8,817.45,370.15,795.22,376.57Z"/><path class="cls-5" d="M815.15,376c-4.83-3-11.47-3.24-20.28-.69-8,2.31-14.17,7-17.8,13.56s-4.38,14.24-2.26,22.37a28.12,28.12,0,0,0,14.6,18.06A33.55,33.55,0,0,0,804.78,433a36.55,36.55,0,0,0,8.32-1c6.17-1.44,10.34-5.06,12.38-10.76,2-5.44,2.06-12.81.33-22.54C824.19,389.59,822,380.33,815.15,376Zm-2.34,54.74h0Zm10.28-10.38c-1.76,4.9-5.22,7.89-10.57,9.15a32,32,0,0,1-21.95-2.46,25.61,25.61,0,0,1-13.31-16.44c-4-15.34,3.36-28.55,18.3-32.86a36.93,36.93,0,0,1,10.08-1.65,15.12,15.12,0,0,1,8.16,2.06c5.41,3.37,7.65,10.52,9.51,21C825,408.44,824.89,415.39,823.09,420.4Z"/><path class="cls-2" d="M818.91,407.85c-15.85-12.7-29.85-18.78-39.29-20.63a26.17,26.17,0,0,0-4.67,14.17c10.64,2.58,26.52,4.14,36.83,13.14,2.48,2.17,5.5,6.55,8.68,12.34,2.87-2.72,4.54-6.65,5.09-11.82A42.34,42.34,0,0,0,818.91,407.85Z"/><path class="cls-5" d="M819.7,406.86a127.07,127.07,0,0,0-22.27-14.53A71,71,0,0,0,779.86,386a1.27,1.27,0,0,0-1.28.52,27.59,27.59,0,0,0-4.9,14.85,1.27,1.27,0,0,0,1,1.28c2.11.51,4.41,1,6.84,1.48,9.54,1.95,21.42,4.37,29.45,11.38,2.27,2,5.18,6.13,8.4,12a1.27,1.27,0,0,0,.92.64l.2,0a1.27,1.27,0,0,0,.87-.35c3.09-2.93,4.88-7.05,5.48-12.6a1.27,1.27,0,0,0-.25-.91A43.4,43.4,0,0,0,819.7,406.86Zm1,17.87c-3.06-5.39-5.78-9.13-8.1-11.16-8.54-7.45-20.78-10-30.62-12-2-.41-3.94-.8-5.72-1.22a25,25,0,0,1,3.92-11.77c11.06,2.38,24.82,9.71,37.92,20.21a39.73,39.73,0,0,1,6.11,6.58A17.92,17.92,0,0,1,820.72,424.73Z"/><path class="cls-4" d="M820.84,461.6c-15.74,4.53-26.56,19.4-22.43,35.24s17.58,24.38,33.53,20.67c22.53-5.25,20.07-18.36,14.7-33.85C840.43,465.78,832.32,458.3,820.84,461.6Z"/><path class="cls-5" d="M836.55,463.73c-4.56-4-10-5.1-16.06-3.35h0a34.58,34.58,0,0,0-19.37,13.9,28.12,28.12,0,0,0-3.93,22.89c2.12,8.13,6.58,14.5,12.89,18.43a27.21,27.21,0,0,0,14.54,4.06,33.55,33.55,0,0,0,7.61-.91c8.94-2.08,14.62-5.52,17.37-10.5,3.91-7.1,1.28-16.24-1.76-25C844.6,473.91,840.91,467.52,836.55,463.73ZM847.37,507c-2.38,4.32-7.52,7.35-15.72,9.26a30.81,30.81,0,0,1-7,.83c-12,0-21.65-7.67-25-20.58a25.61,25.61,0,0,1,3.59-20.85,32,32,0,0,1,18-12.86h0c5.29-1.52,9.76-.6,13.69,2.82s7.46,9.52,10.55,18.43C848.91,494.1,850.45,501.43,847.37,507Z"/><path class="cls-2" d="M829,461.18c0,5.92-.53,10.66-1.55,13.53-4.67,13.06-18.07,22.24-26.06,29.75a26.65,26.65,0,0,0,10.3,10.62c7.49-5.94,17.25-18.31,25.25-38a40.27,40.27,0,0,0,2.15-8.69C836.12,464.42,832.79,462,829,461.18Z"/><path class="cls-5" d="M829.29,459.94a1.27,1.27,0,0,0-1.54,1.23c0,6-.54,10.49-1.48,13.11-3.59,10-12.77,18-20.15,24.31-2,1.73-3.91,3.37-5.58,4.94a1.27,1.27,0,0,0-.25,1.53,28.08,28.08,0,0,0,10.79,11.12,1.27,1.27,0,0,0,1.41-.11c9.37-7.42,18.71-21.47,25.64-38.53a41.38,41.38,0,0,0,2.23-9,1.27,1.27,0,0,0-.24-1C836.95,463.41,833.31,460.83,829.29,459.94Zm6.48,16.64c-9.14,22.53-19.52,33.06-24.19,37A25.53,25.53,0,0,1,803,504.7c1.46-1.33,3.07-2.73,4.77-4.19,7.61-6.55,17.07-14.71,20.89-25.38,1-2.66,1.49-6.79,1.61-12.28a16.93,16.93,0,0,1,7.5,5.85A37.63,37.63,0,0,1,835.77,476.58Z"/><path class="cls-9" d="M814.21,377c3.11,10.78,7.33,26.65,10.42,42.83,1.55-5.19,1.48-12.13-.07-20.85C822.83,389.2,820.6,380.73,814.21,377Z"/><path class="cls-5" d="M814.86,375.87a1.27,1.27,0,0,0-1.87,1.44c3,10.52,7.29,26.46,10.39,42.72a1.27,1.27,0,0,0,1.18,1h.07a1.27,1.27,0,0,0,1.22-.91c1.59-5.33,1.58-12.34,0-21.43C824.16,389.46,822,380.07,814.86,375.87Zm9.61,36.67c-2.52-12-5.49-23.33-7.93-32,3.5,3.88,5.27,10.2,6.78,18.67A63.53,63.53,0,0,1,824.47,412.53Z"/><path class="cls-9" d="M836.69,465.59c5.19,15.86,9.18,31.81,11.61,42.36,3.78-6.42,1.59-14.92-1.66-24.29C843.77,475.41,840.5,469.37,836.69,465.59Z"/><path class="cls-5" d="M837.58,464.69a1.27,1.27,0,0,0-2.1,1.3c5.17,15.81,9.15,31.7,11.58,42.25a1.27,1.27,0,0,0,1,1h.19a1.27,1.27,0,0,0,1.09-.63c4.2-7.14,1.54-16.44-1.56-25.35C844.85,474.64,841.5,468.57,837.58,464.69Zm11,39.06c-2.07-8.7-5-20-8.54-31.65a64.34,64.34,0,0,1,5.36,12C848.27,492.24,849.81,498.65,848.62,503.75Z"/><path class="cls-2" d="M831.8,509.38c-12.1,2.82-22.37-3.52-25.56-15.78a1.47,1.47,0,0,0-2.85.74c1.75,6.73,5.45,12,10.69,15.28A22.6,22.6,0,0,0,826.16,513a27.77,27.77,0,0,0,6.31-.75,1.47,1.47,0,1,0-.67-2.87Z"/><path class="cls-2" d="M812.24,423.16a26.11,26.11,0,0,1-17.89-2,20.8,20.8,0,0,1-10.81-13.35,1.47,1.47,0,1,0-2.85.74A23.7,23.7,0,0,0,793,423.77a28.21,28.21,0,0,0,12.92,3.06,30.7,30.7,0,0,0,7-.81,1.47,1.47,0,0,0-.67-2.87Z"/><path class="cls-2" d="M810.13,385.75l-10.71-5.44a1.47,1.47,0,0,0-1.33,2.62l10.71,5.44a1.47,1.47,0,1,0,1.33-2.62Z"/><path class="cls-2" d="M814.16,394.43,791.64,383a1.47,1.47,0,1,0-1.33,2.62L812.83,397a1.47,1.47,0,0,0,1.33-2.62Z"/><path class="cls-2" d="M832.93,473.24l-10.71-5.44a1.47,1.47,0,1,0-1.33,2.62l10.71,5.44a1.47,1.47,0,0,0,1.33-2.62Z"/><path class="cls-2" d="M837,481.91l-22.52-11.45a1.47,1.47,0,1,0-1.33,2.62l22.52,11.45a1.47,1.47,0,1,0,1.33-2.62Z"/><rect class="cls-2" x="682.51" y="87.34" width="135.8" height="133.74" transform="translate(498.26 877.62) rotate(-82.4)"/><path class="cls-3" d="M825.85,94.5,693.28,76.8a1.27,1.27,0,0,0-1.43,1.09l-18,134.6a1.27,1.27,0,0,0,1.09,1.43l132.56,17.7h.17a1.27,1.27,0,0,0,1.26-1.1l18-134.6A1.27,1.27,0,0,0,825.85,94.5ZM806.62,228.93l-130-17.36L694.21,79.49l130,17.36Z"/><rect class="cls-12" x="707.17" y="138.81" width="37.58" height="16.97" transform="translate(481.06 846.4) rotate(-82.16)"/><path class="cls-14" d="M737.13,128.38l-16.81-2.31a1.47,1.47,0,0,0-1.66,1.26l-5.12,37.23a1.47,1.47,0,0,0,1.26,1.66l16.81,2.31h.2a1.47,1.47,0,0,0,1.46-1.27L738.39,130A1.47,1.47,0,0,0,737.13,128.38Zm-6.58,37-13.9-1.91,4.72-34.32,13.9,1.91Z"/><rect class="cls-2" x="729.52" y="136.92" width="48.98" height="16.97" transform="translate(507.15 872.55) rotate(-82.16)"/><path class="cls-14" d="M766,120.85l-16.81-2.31a1.47,1.47,0,0,0-1.66,1.26l-6.68,48.52a1.47,1.47,0,0,0,1.26,1.66l16.81,2.31h.2a1.47,1.47,0,0,0,1.46-1.27l6.68-48.52A1.47,1.47,0,0,0,766,120.85Zm-8.14,48.32-13.9-1.91,6.28-45.6,13.9,1.91Z"/><rect class="cls-4" x="752.14" y="135.33" width="59.76" height="16.97" transform="translate(532.91 898.92) rotate(-82.16)"/><path class="cls-14" d="M794.7,113.92l-16.81-2.31a1.47,1.47,0,0,0-1.66,1.26l-8.15,59.2a1.47,1.47,0,0,0,1.26,1.66L786.15,176h.2a1.47,1.47,0,0,0,1.46-1.27l8.15-59.2a1.47,1.47,0,0,0-1.26-1.66Zm-9.61,59L771.2,171l7.75-56.28,13.9,1.91Z"/><path class="cls-14" d="M791.47,173.8l-81.61-11.23a1.47,1.47,0,0,0-.4,2.92l81.61,11.23h.2a1.47,1.47,0,0,0,.2-2.93Z"/><path class="cls-14" d="M790.16,184.56l-81.61-11.23a1.47,1.47,0,0,0-.4,2.92l81.61,11.23h.2a1.47,1.47,0,0,0,.2-2.93Z"/><path class="cls-14" d="M754.08,190.55l-46.84-6.45a1.47,1.47,0,0,0-.4,2.92l46.84,6.45h.2a1.47,1.47,0,0,0,.2-2.93Z"/><rect class="cls-12" x="815.97" y="192.11" width="20.41" height="31.97" rx="10" ry="10" transform="translate(269.2 852.81) rotate(-63.31)"/><path class="cls-5" d="M836.68,200.54,826,195.16a11.3,11.3,0,0,0-15.13,5l-.19.37a11.3,11.3,0,0,0,5,15.13l10.7,5.38a11.17,11.17,0,0,0,5,1.2,11.35,11.35,0,0,0,3.57-.58A11.19,11.19,0,0,0,841.5,216l.19-.37a11.3,11.3,0,0,0-5-15.13Zm2.74,14-.19.37a8.74,8.74,0,0,1-11.72,3.88l-10.7-5.38a8.76,8.76,0,0,1-3.88-11.72l.19-.37a8.67,8.67,0,0,1,5.06-4.36,8.81,8.81,0,0,1,2.77-.45,8.64,8.64,0,0,1,3.89.93l10.7,5.38A8.74,8.74,0,0,1,839.42,214.53Z"/><path class="cls-12" d="M889.5,189.68A48,48,0,0,0,825.11,211c-11.9,23.67-5.72,59.18,18,71.08s55.86-4.33,67.75-28A48,48,0,0,0,889.5,189.68Z"/><path class="cls-5" d="M890.07,188.54A49.23,49.23,0,0,0,824,210.42a58.28,58.28,0,0,0-5.67,19.85,65,65,0,0,0,1.21,20.95,53.47,53.47,0,0,0,8,18.77,38.93,38.93,0,0,0,32.91,17.34l1.54,0a53.47,53.47,0,0,0,19.86-4.74A65,65,0,0,0,899.39,271a58.28,58.28,0,0,0,12.55-16.39,49.23,49.23,0,0,0-21.88-66.09Zm19.61,65a55.72,55.72,0,0,1-12,15.67,62.47,62.47,0,0,1-16.84,11.08,51,51,0,0,1-18.92,4.53,36.49,36.49,0,0,1-32.27-16.22A51,51,0,0,1,822,250.66a62.47,62.47,0,0,1-1.16-20.12,55.72,55.72,0,0,1,5.41-19,46.69,46.69,0,1,1,83.43,41.94Z"/><circle class="cls-12" cx="867.96" cy="232.53" r="47.96" transform="translate(270.39 903.59) rotate(-63.31)"/><path class="cls-5" d="M890.07,188.54a49.23,49.23,0,1,0,24.63,28.52A48.91,48.91,0,0,0,890.07,188.54Zm19.61,65a46.69,46.69,0,1,1,2.61-35.64A46.39,46.39,0,0,1,909.68,253.5Z"/><circle class="cls-15" cx="867.96" cy="232.53" r="38.66" transform="translate(270.39 903.59) rotate(-63.31)"/><circle class="cls-16" cx="867.96" cy="232.53" r="33.9" transform="translate(270.39 903.59) rotate(-63.31)"/><path class="cls-5" d="M883.75,201.11a35.17,35.17,0,1,0,15.63,47.22A34.94,34.94,0,0,0,883.75,201.11Zm14.49,46.65h0Zm-1.13-.57a32.66,32.66,0,1,1-14.5-43.81A32.67,32.67,0,0,1,897.11,247.18Z"/><path class="cls-14" d="M880.9,206.79a28.81,28.81,0,0,0-38.68,12.8q-.66,1.31-1.17,2.66a28.81,28.81,0,0,1,49.18,28.56,28.83,28.83,0,0,0-9.33-44Z"/><path class="cls-8" d="M612.19,86.11H273.78a12.44,12.44,0,0,0-12.44,12.44v233a14.74,14.74,0,0,0,14.74,14.74H609.89a14.74,14.74,0,0,0,14.74-14.74v-233A12.44,12.44,0,0,0,612.19,86.11Z"/><path class="cls-17" d="M612.19,83.58H273.78a15,15,0,0,0-15,15v233a17.3,17.3,0,0,0,17.28,17.28H609.89a17.3,17.3,0,0,0,17.28-17.28v-233A15,15,0,0,0,612.19,83.58Zm12.44,39.86V331.56a14.74,14.74,0,0,1-14.74,14.74H276.07a14.74,14.74,0,0,1-14.74-14.74v-233a12.44,12.44,0,0,1,12.44-12.44H612.19a12.44,12.44,0,0,1,12.44,12.44Z"/><path class="cls-4" d="M612.19,86.11H273.78a12.44,12.44,0,0,0-12.44,12.44v233a14.74,14.74,0,0,0,14.74,14.74H609.89a14.74,14.74,0,0,0,14.74-14.74v-233A12.44,12.44,0,0,0,612.19,86.11Z"/><path class="cls-5" d="M612.19,83.58H273.78a15,15,0,0,0-15,15v233a17.3,17.3,0,0,0,17.28,17.28H609.89a17.3,17.3,0,0,0,17.28-17.28v-233A15,15,0,0,0,612.19,83.58Zm12.44,39.86V331.56a14.74,14.74,0,0,1-14.74,14.74H276.07a14.74,14.74,0,0,1-14.74-14.74v-233a12.44,12.44,0,0,1,12.44-12.44H612.19a12.44,12.44,0,0,1,12.44,12.44Z"/><path class="cls-4" d="M612.19,348.21H273.78a12.44,12.44,0,0,0-12.44,12.44v233a14.74,14.74,0,0,0,14.74,14.74H609.89a14.74,14.74,0,0,0,14.74-14.74v-233A12.44,12.44,0,0,0,612.19,348.21Z"/><path class="cls-5" d="M612.19,345.67H273.78a15,15,0,0,0-15,15v233a17.3,17.3,0,0,0,17.28,17.28H609.89a17.3,17.3,0,0,0,17.28-17.28v-233A15,15,0,0,0,612.19,345.67Zm12.44,39.86V593.66a14.74,14.74,0,0,1-14.74,14.74H276.07a14.74,14.74,0,0,1-14.74-14.74v-233a12.44,12.44,0,0,1,12.44-12.44H612.19a12.44,12.44,0,0,1,12.44,12.44Z"/><path class="cls-4" d="M612.19,348.21H273.78a12.27,12.27,0,0,0-12.44,12.1v226.6a14.54,14.54,0,0,0,14.74,14.33H609.89a14.54,14.54,0,0,0,14.74-14.33V360.31A12.27,12.27,0,0,0,612.19,348.21Z"/><path class="cls-5" d="M612.19,345.67H273.78a14.83,14.83,0,0,0-15,14.64v226.6a17.1,17.1,0,0,0,17.28,16.87H609.89a17.1,17.1,0,0,0,17.28-16.87V360.31A14.83,14.83,0,0,0,612.19,345.67Zm12.44,38.84v202.4a14.54,14.54,0,0,1-14.74,14.33H276.07a14.54,14.54,0,0,1-14.74-14.33V360.31a12.27,12.27,0,0,1,12.44-12.1H612.19a12.27,12.27,0,0,1,12.44,12.1Z"/><path class="cls-12" d="M610.92,91.59H275a7.7,7.7,0,0,0-7.7,7.7V331.6a9.29,9.29,0,0,0,9.29,9.29H609.33a9.29,9.29,0,0,0,9.29-9.29V99.3A7.7,7.7,0,0,0,610.92,91.59Z"/><path class="cls-5" d="M610.92,89.06H275A10.25,10.25,0,0,0,264.8,99.3V331.6a11.84,11.84,0,0,0,11.83,11.83H609.33a11.84,11.84,0,0,0,11.83-11.83V99.3A10.25,10.25,0,0,0,610.92,89.06Zm7.7,38.63V331.6a9.29,9.29,0,0,1-9.29,9.29H276.63a9.29,9.29,0,0,1-9.29-9.29V99.3a7.7,7.7,0,0,1,7.7-7.7H610.92a7.7,7.7,0,0,1,7.7,7.7Z"/><rect class="cls-2" x="281.48" y="348.21" width="323.01" height="15.6"/><rect class="cls-2" x="288.52" y="339.43" width="308.93" height="15.96"/><path class="cls-5" d="M597.45,336.89H288.52a2.54,2.54,0,0,0-2.54,2.54v16a2.54,2.54,0,0,0,2.54,2.54H597.45a2.54,2.54,0,0,0,2.54-2.54v-16A2.54,2.54,0,0,0,597.45,336.89Zm0,18.5H288.52v-16H597.45Z"/><polygon class="cls-12" points="406.33 601.6 405.75 608.39 480.22 608.39 479.63 601.6 406.33 601.6"/><path class="cls-5" d="M482.16,601.38a2.54,2.54,0,0,0-2.53-2.32h-73.3a2.54,2.54,0,0,0-2.53,2.32l-.59,6.79a2.54,2.54,0,0,0,2.53,2.76h74.47a2.54,2.54,0,0,0,2.53-2.76Zm-76.42,7,.59-6.79h73.3l.59,6.79Z"/><rect class="cls-4" x="389.94" y="514.29" width="106.08" height="70.32" rx="10.8" ry="10.8"/><path class="cls-5" d="M485.22,513H400.75a12.09,12.09,0,0,0-12.07,12.07v48.72a12.09,12.09,0,0,0,12.07,12.07h84.47a12.09,12.09,0,0,0,12.07-12.07V525.09A12.09,12.09,0,0,0,485.22,513Zm9.53,60.79a9.55,9.55,0,0,1-9.53,9.53H400.75a9.55,9.55,0,0,1-9.53-9.53V525.09a9.55,9.55,0,0,1,9.53-9.53h84.47a9.55,9.55,0,0,1,9.53,9.53Z"/><rect class="cls-2" x="275.81" y="378.49" width="334.34" height="120.98" rx="9.65" ry="9.65"/><rect class="cls-2" x="293.28" y="393.34" width="28.4" height="16.81" rx="2.82" ry="2.82"/><path class="cls-5" d="M318.85,392.07H296.1a4.1,4.1,0,0,0-4.09,4.09v11.16a4.1,4.1,0,0,0,4.09,4.09h22.75a4.1,4.1,0,0,0,4.09-4.09V396.16A4.1,4.1,0,0,0,318.85,392.07Zm1.56,15.25a1.56,1.56,0,0,1-1.56,1.56H296.1a1.56,1.56,0,0,1-1.56-1.56V396.16a1.56,1.56,0,0,1,1.56-1.56h22.75a1.56,1.56,0,0,1,1.56,1.56Z"/><rect class="cls-2" x="564.29" y="393.34" width="28.4" height="16.81" rx="2.82" ry="2.82"/><path class="cls-5" d="M589.86,392.07H567.11a4.1,4.1,0,0,0-4.09,4.09v11.16a4.1,4.1,0,0,0,4.09,4.09h22.75a4.1,4.1,0,0,0,4.09-4.09V396.16A4.1,4.1,0,0,0,589.86,392.07Zm1.55,15.25a1.56,1.56,0,0,1-1.55,1.56H567.11a1.56,1.56,0,0,1-1.56-1.56V396.16a1.56,1.56,0,0,1,1.56-1.56h22.75a1.56,1.56,0,0,1,1.55,1.56Z"/><rect class="cls-2" x="564.29" y="418.16" width="28.4" height="16.81" rx="2.82" ry="2.82"/><path class="cls-5" d="M589.86,416.89H567.11A4.1,4.1,0,0,0,563,421v11.16a4.1,4.1,0,0,0,4.09,4.09h22.75a4.1,4.1,0,0,0,4.09-4.09V421A4.1,4.1,0,0,0,589.86,416.89Zm1.55,15.25a1.56,1.56,0,0,1-1.55,1.56H567.11a1.56,1.56,0,0,1-1.56-1.56V421a1.56,1.56,0,0,1,1.56-1.56h22.75a1.56,1.56,0,0,1,1.55,1.56Z"/><rect class="cls-2" x="331.05" y="393.34" width="16.87" height="16.81" rx="2.18" ry="2.18"/><path class="cls-5" d="M345.75,392.07H333.23a3.45,3.45,0,0,0-3.45,3.45V408a3.45,3.45,0,0,0,3.45,3.45h12.52a3.45,3.45,0,0,0,3.45-3.45V395.52A3.45,3.45,0,0,0,345.75,392.07Zm.91,15.9a.91.91,0,0,1-.91.91H333.23a.91.91,0,0,1-.91-.91V395.52a.91.91,0,0,1,.91-.91h12.52a.91.91,0,0,1,.91.91Z"/><rect class="cls-2" x="356.82" y="393.34" width="16.87" height="16.81" rx="2.18" ry="2.18"/><path class="cls-5" d="M371.52,392.07H359a3.45,3.45,0,0,0-3.45,3.45V408a3.45,3.45,0,0,0,3.45,3.45h12.52A3.45,3.45,0,0,0,375,408V395.52A3.45,3.45,0,0,0,371.52,392.07Zm.91,15.9a.91.91,0,0,1-.91.91H359a.91.91,0,0,1-.91-.91V395.52a.91.91,0,0,1,.91-.91h12.52a.91.91,0,0,1,.91.91Z"/><rect class="cls-2" x="382.6" y="393.34" width="16.87" height="16.81" rx="2.18" ry="2.18"/><path class="cls-5" d="M397.29,392.07H384.77a3.45,3.45,0,0,0-3.45,3.45V408a3.45,3.45,0,0,0,3.45,3.45h12.52a3.45,3.45,0,0,0,3.45-3.45V395.52A3.45,3.45,0,0,0,397.29,392.07Zm.91,15.9a.91.91,0,0,1-.91.91H384.77a.91.91,0,0,1-.91-.91V395.52a.91.91,0,0,1,.91-.91h12.52a.91.91,0,0,1,.91.91Z"/><rect class="cls-2" x="408.37" y="393.34" width="16.87" height="16.81" rx="2.18" ry="2.18"/><path class="cls-5" d="M423.06,392.07H410.54a3.45,3.45,0,0,0-3.45,3.45V408a3.45,3.45,0,0,0,3.45,3.45h12.52a3.45,3.45,0,0,0,3.45-3.45V395.52A3.45,3.45,0,0,0,423.06,392.07ZM424,408a.91.91,0,0,1-.91.91H410.54a.91.91,0,0,1-.91-.91V395.52a.91.91,0,0,1,.91-.91h12.52a.91.91,0,0,1,.91.91Z"/><rect class="cls-2" x="434.14" y="393.34" width="16.87" height="16.81" rx="2.18" ry="2.18"/><path class="cls-5" d="M448.83,392.07H436.32a3.45,3.45,0,0,0-3.45,3.45V408a3.45,3.45,0,0,0,3.45,3.45h12.52a3.45,3.45,0,0,0,3.45-3.45V395.52A3.45,3.45,0,0,0,448.83,392.07Zm.91,15.9a.91.91,0,0,1-.91.91H436.32a.91.91,0,0,1-.91-.91V395.52a.91.91,0,0,1,.91-.91h12.52a.91.91,0,0,1,.91.91Z"/><rect class="cls-2" x="459.91" y="393.34" width="16.87" height="16.81" rx="2.18" ry="2.18"/><path class="cls-5" d="M474.6,392.07H462.09a3.45,3.45,0,0,0-3.45,3.45V408a3.45,3.45,0,0,0,3.45,3.45H474.6a3.45,3.45,0,0,0,3.45-3.45V395.52A3.45,3.45,0,0,0,474.6,392.07Zm.91,15.9a.91.91,0,0,1-.91.91H462.09a.91.91,0,0,1-.91-.91V395.52a.91.91,0,0,1,.91-.91H474.6a.91.91,0,0,1,.91.91Z"/><rect class="cls-2" x="485.68" y="393.34" width="16.87" height="16.81" rx="2.18" ry="2.18"/><path class="cls-5" d="M500.38,392.07H487.86a3.45,3.45,0,0,0-3.45,3.45V408a3.45,3.45,0,0,0,3.45,3.45h12.52a3.45,3.45,0,0,0,3.45-3.45V395.52A3.45,3.45,0,0,0,500.38,392.07Zm.91,15.9a.91.91,0,0,1-.91.91H487.86A.91.91,0,0,1,487,408V395.52a.91.91,0,0,1,.91-.91h12.52a.91.91,0,0,1,.91.91Z"/><rect class="cls-2" x="511.45" y="393.34" width="16.87" height="16.81" rx="2.18" ry="2.18"/><path class="cls-5" d="M526.15,392.07H513.63a3.45,3.45,0,0,0-3.45,3.45V408a3.45,3.45,0,0,0,3.45,3.45h12.52a3.45,3.45,0,0,0,3.45-3.45V395.52A3.45,3.45,0,0,0,526.15,392.07Zm.91,15.9a.91.91,0,0,1-.91.91H513.63a.91.91,0,0,1-.91-.91V395.52a.91.91,0,0,1,.91-.91h12.52a.91.91,0,0,1,.91.91Z"/><rect class="cls-2" x="537.23" y="393.34" width="16.87" height="16.81" rx="2.18" ry="2.18"/><path class="cls-5" d="M551.92,392.07H539.4a3.45,3.45,0,0,0-3.45,3.45V408a3.45,3.45,0,0,0,3.45,3.45h12.52a3.45,3.45,0,0,0,3.45-3.45V395.52A3.45,3.45,0,0,0,551.92,392.07Zm.91,15.9a.91.91,0,0,1-.91.91H539.4a.91.91,0,0,1-.91-.91V395.52a.91.91,0,0,1,.91-.91h12.52a.91.91,0,0,1,.91.91Z"/><rect class="cls-2" x="331.05" y="418.16" width="16.87" height="16.81" rx="2.18" ry="2.18"/><path class="cls-5" d="M345.75,416.89H333.23a3.45,3.45,0,0,0-3.45,3.45v12.45a3.45,3.45,0,0,0,3.45,3.45h12.52a3.45,3.45,0,0,0,3.45-3.45V420.34A3.45,3.45,0,0,0,345.75,416.89Zm.91,15.9a.91.91,0,0,1-.91.91H333.23a.91.91,0,0,1-.91-.91V420.34a.91.91,0,0,1,.91-.91h12.52a.91.91,0,0,1,.91.91Z"/><rect class="cls-2" x="356.82" y="418.16" width="16.87" height="16.81" rx="2.18" ry="2.18"/><path class="cls-5" d="M371.52,416.89H359a3.45,3.45,0,0,0-3.45,3.45v12.45a3.45,3.45,0,0,0,3.45,3.45h12.52a3.45,3.45,0,0,0,3.45-3.45V420.34A3.45,3.45,0,0,0,371.52,416.89Zm.91,15.9a.91.91,0,0,1-.91.91H359a.91.91,0,0,1-.91-.91V420.34a.91.91,0,0,1,.91-.91h12.52a.91.91,0,0,1,.91.91Z"/><rect class="cls-2" x="382.6" y="418.16" width="16.87" height="16.81" rx="2.18" ry="2.18"/><path class="cls-5" d="M397.29,416.89H384.77a3.45,3.45,0,0,0-3.45,3.45v12.45a3.45,3.45,0,0,0,3.45,3.45h12.52a3.45,3.45,0,0,0,3.45-3.45V420.34A3.45,3.45,0,0,0,397.29,416.89Zm.91,15.9a.91.91,0,0,1-.91.91H384.77a.91.91,0,0,1-.91-.91V420.34a.91.91,0,0,1,.91-.91h12.52a.91.91,0,0,1,.91.91Z"/><rect class="cls-2" x="408.37" y="418.16" width="16.87" height="16.81" rx="2.18" ry="2.18"/><path class="cls-5" d="M423.06,416.89H410.54a3.45,3.45,0,0,0-3.45,3.45v12.45a3.45,3.45,0,0,0,3.45,3.45h12.52a3.45,3.45,0,0,0,3.45-3.45V420.34A3.45,3.45,0,0,0,423.06,416.89Zm.91,15.9a.91.91,0,0,1-.91.91H410.54a.91.91,0,0,1-.91-.91V420.34a.91.91,0,0,1,.91-.91h12.52a.91.91,0,0,1,.91.91Z"/><rect class="cls-2" x="434.14" y="418.16" width="16.87" height="16.81" rx="2.18" ry="2.18"/><path class="cls-5" d="M448.83,416.89H436.32a3.45,3.45,0,0,0-3.45,3.45v12.45a3.45,3.45,0,0,0,3.45,3.45h12.52a3.45,3.45,0,0,0,3.45-3.45V420.34A3.45,3.45,0,0,0,448.83,416.89Zm.91,15.9a.91.91,0,0,1-.91.91H436.32a.91.91,0,0,1-.91-.91V420.34a.91.91,0,0,1,.91-.91h12.52a.91.91,0,0,1,.91.91Z"/><rect class="cls-2" x="459.91" y="418.16" width="16.87" height="16.81" rx="2.18" ry="2.18"/><path class="cls-5" d="M474.6,416.89H462.09a3.45,3.45,0,0,0-3.45,3.45v12.45a3.45,3.45,0,0,0,3.45,3.45H474.6a3.45,3.45,0,0,0,3.45-3.45V420.34A3.45,3.45,0,0,0,474.6,416.89Zm.91,15.9a.91.91,0,0,1-.91.91H462.09a.91.91,0,0,1-.91-.91V420.34a.91.91,0,0,1,.91-.91H474.6a.91.91,0,0,1,.91.91Z"/><rect class="cls-2" x="485.68" y="418.16" width="16.87" height="16.81" rx="2.18" ry="2.18"/><path class="cls-5" d="M500.38,416.89H487.86a3.45,3.45,0,0,0-3.45,3.45v12.45a3.45,3.45,0,0,0,3.45,3.45h12.52a3.45,3.45,0,0,0,3.45-3.45V420.34A3.45,3.45,0,0,0,500.38,416.89Zm.91,15.9a.91.91,0,0,1-.91.91H487.86a.91.91,0,0,1-.91-.91V420.34a.91.91,0,0,1,.91-.91h12.52a.91.91,0,0,1,.91.91Z"/><rect class="cls-2" x="511.45" y="418.16" width="16.87" height="16.81" rx="2.18" ry="2.18"/><path class="cls-5" d="M526.15,416.89H513.63a3.45,3.45,0,0,0-3.45,3.45v12.45a3.45,3.45,0,0,0,3.45,3.45h12.52a3.45,3.45,0,0,0,3.45-3.45V420.34A3.45,3.45,0,0,0,526.15,416.89Zm.91,15.9a.91.91,0,0,1-.91.91H513.63a.91.91,0,0,1-.91-.91V420.34a.91.91,0,0,1,.91-.91h12.52a.91.91,0,0,1,.91.91Z"/><rect class="cls-2" x="537.23" y="418.16" width="16.87" height="16.81" rx="2.18" ry="2.18"/><path class="cls-5" d="M551.92,416.89H539.4a3.45,3.45,0,0,0-3.45,3.45v12.45a3.45,3.45,0,0,0,3.45,3.45h12.52a3.45,3.45,0,0,0,3.45-3.45V420.34A3.45,3.45,0,0,0,551.92,416.89Zm.91,15.9a.91.91,0,0,1-.91.91H539.4a.91.91,0,0,1-.91-.91V420.34a.91.91,0,0,1,.91-.91h12.52a.91.91,0,0,1,.91.91Z"/><rect class="cls-2" x="331.05" y="442.98" width="16.87" height="16.81" rx="2.18" ry="2.18"/><path class="cls-5" d="M345.75,441.71H333.23a3.45,3.45,0,0,0-3.45,3.45v12.45a3.45,3.45,0,0,0,3.45,3.45h12.52a3.45,3.45,0,0,0,3.45-3.45V445.16A3.45,3.45,0,0,0,345.75,441.71Zm.91,15.9a.91.91,0,0,1-.91.91H333.23a.91.91,0,0,1-.91-.91V445.16a.91.91,0,0,1,.91-.91h12.52a.91.91,0,0,1,.91.91Z"/><rect class="cls-2" x="356.82" y="442.98" width="16.87" height="16.81" rx="2.18" ry="2.18"/><path class="cls-5" d="M371.52,441.71H359a3.45,3.45,0,0,0-3.45,3.45v12.45a3.45,3.45,0,0,0,3.45,3.45h12.52a3.45,3.45,0,0,0,3.45-3.45V445.16A3.45,3.45,0,0,0,371.52,441.71Zm.91,15.9a.91.91,0,0,1-.91.91H359a.91.91,0,0,1-.91-.91V445.16a.91.91,0,0,1,.91-.91h12.52a.91.91,0,0,1,.91.91Z"/><rect class="cls-2" x="382.6" y="442.98" width="16.87" height="16.81" rx="2.18" ry="2.18"/><path class="cls-5" d="M397.29,441.71H384.77a3.45,3.45,0,0,0-3.45,3.45v12.45a3.45,3.45,0,0,0,3.45,3.45h12.52a3.45,3.45,0,0,0,3.45-3.45V445.16A3.45,3.45,0,0,0,397.29,441.71Zm.91,15.9a.91.91,0,0,1-.91.91H384.77a.91.91,0,0,1-.91-.91V445.16a.91.91,0,0,1,.91-.91h12.52a.91.91,0,0,1,.91.91Z"/><rect class="cls-2" x="408.37" y="442.98" width="16.87" height="16.81" rx="2.18" ry="2.18"/><path class="cls-5" d="M423.06,441.71H410.54a3.45,3.45,0,0,0-3.45,3.45v12.45a3.45,3.45,0,0,0,3.45,3.45h12.52a3.45,3.45,0,0,0,3.45-3.45V445.16A3.45,3.45,0,0,0,423.06,441.71Zm.91,15.9a.91.91,0,0,1-.91.91H410.54a.91.91,0,0,1-.91-.91V445.16a.91.91,0,0,1,.91-.91h12.52a.91.91,0,0,1,.91.91Z"/><rect class="cls-2" x="434.14" y="442.98" width="16.87" height="16.81" rx="2.18" ry="2.18"/><path class="cls-5" d="M448.83,441.71H436.32a3.45,3.45,0,0,0-3.45,3.45v12.45a3.45,3.45,0,0,0,3.45,3.45h12.52a3.45,3.45,0,0,0,3.45-3.45V445.16A3.45,3.45,0,0,0,448.83,441.71Zm.91,15.9a.91.91,0,0,1-.91.91H436.32a.91.91,0,0,1-.91-.91V445.16a.91.91,0,0,1,.91-.91h12.52a.91.91,0,0,1,.91.91Z"/><rect class="cls-2" x="459.91" y="442.98" width="16.87" height="16.81" rx="2.18" ry="2.18"/><path class="cls-5" d="M474.6,441.71H462.09a3.45,3.45,0,0,0-3.45,3.45v12.45a3.45,3.45,0,0,0,3.45,3.45H474.6a3.45,3.45,0,0,0,3.45-3.45V445.16A3.45,3.45,0,0,0,474.6,441.71Zm.91,15.9a.91.91,0,0,1-.91.91H462.09a.91.91,0,0,1-.91-.91V445.16a.91.91,0,0,1,.91-.91H474.6a.91.91,0,0,1,.91.91Z"/><rect class="cls-2" x="485.68" y="442.98" width="16.87" height="16.81" rx="2.18" ry="2.18"/><path class="cls-5" d="M500.38,441.71H487.86a3.45,3.45,0,0,0-3.45,3.45v12.45a3.45,3.45,0,0,0,3.45,3.45h12.52a3.45,3.45,0,0,0,3.45-3.45V445.16A3.45,3.45,0,0,0,500.38,441.71Zm.91,15.9a.91.91,0,0,1-.91.91H487.86a.91.91,0,0,1-.91-.91V445.16a.91.91,0,0,1,.91-.91h12.52a.91.91,0,0,1,.91.91Z"/><rect class="cls-2" x="511.45" y="442.98" width="16.87" height="16.81" rx="2.18" ry="2.18"/><path class="cls-5" d="M526.15,441.71H513.63a3.45,3.45,0,0,0-3.45,3.45v12.45a3.45,3.45,0,0,0,3.45,3.45h12.52a3.45,3.45,0,0,0,3.45-3.45V445.16A3.45,3.45,0,0,0,526.15,441.71Zm.91,15.9a.91.91,0,0,1-.91.91H513.63a.91.91,0,0,1-.91-.91V445.16a.91.91,0,0,1,.91-.91h12.52a.91.91,0,0,1,.91.91Z"/><rect class="cls-2" x="331.05" y="467.81" width="26.34" height="16.81" rx="2.72" ry="2.72"/><path class="cls-5" d="M354.67,466.54h-20.9a4,4,0,0,0-4,4v11.37a4,4,0,0,0,4,4h20.9a4,4,0,0,0,4-4V470.53A4,4,0,0,0,354.67,466.54Zm1.45,15.36a1.45,1.45,0,0,1-1.45,1.45h-20.9a1.45,1.45,0,0,1-1.45-1.45V470.53a1.45,1.45,0,0,1,1.45-1.45h20.9a1.45,1.45,0,0,1,1.45,1.45Z"/><rect class="cls-2" x="366.84" y="467.81" width="16.87" height="16.81" rx="2.18" ry="2.18"/><path class="cls-5" d="M381.53,466.54H369a3.45,3.45,0,0,0-3.45,3.45v12.45a3.45,3.45,0,0,0,3.45,3.45h12.52a3.45,3.45,0,0,0,3.45-3.45V470A3.45,3.45,0,0,0,381.53,466.54Zm.91,15.9a.91.91,0,0,1-.91.91H369a.91.91,0,0,1-.91-.91V470a.91.91,0,0,1,.91-.91h12.52a.91.91,0,0,1,.91.91Z"/><rect class="cls-2" x="493.84" y="467.81" width="34.48" height="16.81" rx="3.11" ry="3.11"/><path class="cls-5" d="M525.21,466.54H497a4.39,4.39,0,0,0-4.38,4.38V481.5a4.39,4.39,0,0,0,4.38,4.38h28.26a4.39,4.39,0,0,0,4.38-4.38V470.92A4.39,4.39,0,0,0,525.21,466.54Zm1.84,15a1.84,1.84,0,0,1-1.84,1.84H497a1.84,1.84,0,0,1-1.84-1.84V470.92a1.84,1.84,0,0,1,1.84-1.84h28.26a1.84,1.84,0,0,1,1.84,1.84Z"/><rect class="cls-2" x="537.23" y="467.81" width="16.87" height="16.81" rx="2.18" ry="2.18"/><path class="cls-5" d="M551.92,466.54H539.4A3.45,3.45,0,0,0,536,470v12.45a3.45,3.45,0,0,0,3.45,3.45h12.52a3.45,3.45,0,0,0,3.45-3.45V470A3.45,3.45,0,0,0,551.92,466.54Zm.91,15.9a.91.91,0,0,1-.91.91H539.4a.91.91,0,0,1-.91-.91V470a.91.91,0,0,1,.91-.91h12.52a.91.91,0,0,1,.91.91Z"/><rect class="cls-2" x="293.28" y="418.16" width="28.4" height="16.81" rx="2.82" ry="2.82"/><path class="cls-5" d="M318.85,416.89H296.1A4.1,4.1,0,0,0,292,421v11.16a4.1,4.1,0,0,0,4.09,4.09h22.75a4.1,4.1,0,0,0,4.09-4.09V421A4.1,4.1,0,0,0,318.85,416.89Zm1.56,15.25a1.56,1.56,0,0,1-1.56,1.56H296.1a1.56,1.56,0,0,1-1.56-1.56V421a1.56,1.56,0,0,1,1.56-1.56h22.75a1.56,1.56,0,0,1,1.56,1.56Z"/><rect class="cls-2" x="293.28" y="442.98" width="28.4" height="16.81" rx="2.82" ry="2.82"/><path class="cls-5" d="M318.85,441.71H296.1a4.1,4.1,0,0,0-4.09,4.09V457a4.1,4.1,0,0,0,4.09,4.09h22.75a4.1,4.1,0,0,0,4.09-4.09V445.81A4.1,4.1,0,0,0,318.85,441.71ZM320.41,457a1.56,1.56,0,0,1-1.56,1.56H296.1a1.56,1.56,0,0,1-1.56-1.56V445.81a1.56,1.56,0,0,1,1.56-1.56h22.75a1.56,1.56,0,0,1,1.56,1.56Z"/><rect class="cls-2" x="537.13" y="442.98" width="55.56" height="16.81" rx="3.95" ry="3.95"/><path class="cls-5" d="M588.74,441.71H541.08a5.23,5.23,0,0,0-5.22,5.22v8.91a5.23,5.23,0,0,0,5.22,5.22h47.66a5.23,5.23,0,0,0,5.22-5.22v-8.91A5.23,5.23,0,0,0,588.74,441.71Zm2.68,14.13a2.68,2.68,0,0,1-2.68,2.68H541.08a2.68,2.68,0,0,1-2.68-2.68v-8.91a2.68,2.68,0,0,1,2.68-2.68h47.66a2.68,2.68,0,0,1,2.68,2.68Z"/><rect class="cls-2" x="293.28" y="467.81" width="28.4" height="16.81" rx="2.82" ry="2.82"/><path class="cls-5" d="M318.85,466.54H296.1a4.1,4.1,0,0,0-4.09,4.09v11.16a4.1,4.1,0,0,0,4.09,4.09h22.75a4.1,4.1,0,0,0,4.09-4.09V470.63A4.1,4.1,0,0,0,318.85,466.54Zm1.56,15.25a1.56,1.56,0,0,1-1.56,1.56H296.1a1.56,1.56,0,0,1-1.56-1.56V470.63a1.56,1.56,0,0,1,1.56-1.56h22.75a1.56,1.56,0,0,1,1.56,1.56Z"/><rect class="cls-2" x="564.29" y="467.81" width="28.4" height="16.81" rx="2.82" ry="2.82"/><path class="cls-5" d="M589.86,466.54H567.11a4.1,4.1,0,0,0-4.09,4.09v11.16a4.1,4.1,0,0,0,4.09,4.09h22.75a4.1,4.1,0,0,0,4.09-4.09V470.63A4.1,4.1,0,0,0,589.86,466.54Zm1.55,15.25a1.56,1.56,0,0,1-1.55,1.56H567.11a1.56,1.56,0,0,1-1.56-1.56V470.63a1.56,1.56,0,0,1,1.56-1.56h22.75a1.56,1.56,0,0,1,1.55,1.56Z"/><rect class="cls-2" x="393.16" y="467.81" width="92.36" height="16.81" rx="3.2" ry="3.2"/><path class="cls-5" d="M482.32,466.54h-86a4.47,4.47,0,0,0-4.47,4.47v10.41a4.47,4.47,0,0,0,4.47,4.47h86a4.47,4.47,0,0,0,4.47-4.47V471A4.47,4.47,0,0,0,482.32,466.54Zm1.93,14.88a1.93,1.93,0,0,1-1.93,1.93h-86a1.93,1.93,0,0,1-1.93-1.93V471a1.93,1.93,0,0,1,1.93-1.93h86a1.93,1.93,0,0,1,1.93,1.93Z"/><rect class="cls-15" x="308.7" y="91.59" width="268.57" height="83.02"/><rect class="cls-2" x="289.57" y="118.16" width="306.83" height="199.66"/><path class="cls-5" d="M596.4,115.62H289.57a2.54,2.54,0,0,0-2.54,2.54V317.81a2.54,2.54,0,0,0,2.54,2.54H596.4a2.54,2.54,0,0,0,2.54-2.54V118.16A2.54,2.54,0,0,0,596.4,115.62Zm0,202.19H289.57V118.16H596.4Z"/><path class="cls-4" d="M553.8,53.86H332.17a7.29,7.29,0,0,0-7.29,7.29V317.81H561.09V61.15A7.29,7.29,0,0,0,553.8,53.86Z"/><path class="cls-5" d="M553.8,51.32H332.17a9.84,9.84,0,0,0-9.83,9.83V317.81a2.54,2.54,0,0,0,2.54,2.54H561.09a2.54,2.54,0,0,0,2.54-2.54V61.15A9.84,9.84,0,0,0,553.8,51.32Zm7.29,266.49H324.88V61.15a7.29,7.29,0,0,1,7.29-7.29H553.8a7.29,7.29,0,0,1,7.29,7.29Z"/><rect class="cls-2" x="324.88" y="297.76" width="236.21" height="20.05"/><path class="cls-12" d="M553.8,53.86H332.17a7.29,7.29,0,0,0-7.29,7.29V83.28H561.09V61.15A7.29,7.29,0,0,0,553.8,53.86Z"/><path class="cls-5" d="M553.8,51.32H332.17a9.84,9.84,0,0,0-9.83,9.83V83.28a2.54,2.54,0,0,0,2.54,2.54H561.09a2.54,2.54,0,0,0,2.54-2.54V61.15A9.84,9.84,0,0,0,553.8,51.32Zm7.29,32H324.88V61.15a7.29,7.29,0,0,1,7.29-7.29H553.8a7.29,7.29,0,0,1,7.29,7.29Z"/><circle class="cls-8" cx="525.68" cy="68.57" r="4.07"/><path class="cls-5" d="M525.68,62a6.61,6.61,0,1,0,6.61,6.61A6.61,6.61,0,0,0,525.68,62Zm0,10.67a4.07,4.07,0,1,1,4.07-4.07A4.07,4.07,0,0,1,525.68,72.64Z"/><circle class="cls-15" cx="546.25" cy="68.57" r="4.07"/><path class="cls-5" d="M546.25,62a6.61,6.61,0,1,0,6.61,6.61A6.61,6.61,0,0,0,546.25,62Zm0,10.67a4.07,4.07,0,1,1,4.07-4.07A4.07,4.07,0,0,1,546.25,72.64Z"/><circle class="cls-4" cx="505.11" cy="68.57" r="4.07"/><path class="cls-5" d="M505.11,62a6.61,6.61,0,1,0,6.61,6.61A6.61,6.61,0,0,0,505.11,62Zm0,10.67a4.07,4.07,0,1,1,4.07-4.07A4.07,4.07,0,0,1,505.11,72.64Z"/><path class="cls-8" d="M484.84,64.51H342a4.07,4.07,0,0,0,0,8.13H484.84a4.07,4.07,0,1,0,0-8.13Z"/><path class="cls-5" d="M484.84,62H342a6.61,6.61,0,1,0,0,13.21H484.84a6.61,6.61,0,1,0,0-13.21Zm0,10.67H342a4.07,4.07,0,1,1,0-8.13H484.84a4.07,4.07,0,1,1,0,8.13Z"/><polygon class="cls-4" points="307.72 174.62 282.57 199.77 275.98 206.36 282.57 212.95 282.57 212.95 307.72 238.1 314.31 231.52 289.16 206.36 314.31 181.21 307.72 174.62"/><path class="cls-5" d="M315.58,181.21a1.27,1.27,0,0,0-.37-.9l-6.59-6.59a1.27,1.27,0,0,0-1.8,0l-31.74,31.74a1.27,1.27,0,0,0,0,1.8L306.83,239a1.27,1.27,0,0,0,1.8,0l6.59-6.59a1.27,1.27,0,0,0,0-1.8L291,206.36l24.26-24.26A1.27,1.27,0,0,0,315.58,181.21Zm-27.32,24.26a1.27,1.27,0,0,0,0,1.8l24.26,24.26-4.79,4.79-29.95-29.95,29.95-29.95,4.79,4.79Z"/><polygon class="cls-4" points="578.24 174.62 571.65 181.21 596.81 206.36 571.65 231.52 578.24 238.1 603.39 212.95 603.39 212.95 609.98 206.36 603.39 199.77 578.24 174.62"/><path class="cls-5" d="M579.14,173.72a1.27,1.27,0,0,0-1.8,0l-6.59,6.59a1.27,1.27,0,0,0,0,1.8L595,206.36l-24.26,24.26a1.27,1.27,0,0,0,0,1.8l6.59,6.59a1.27,1.27,0,0,0,1.8,0l31.74-31.74a1.27,1.27,0,0,0,0-1.8Zm-.9,62.59-4.79-4.79,24.26-24.26a1.27,1.27,0,0,0,0-1.8l-24.26-24.26,4.79-4.79,29.95,29.95Z"/><path class="cls-4" d="M744.38,588.09l-3-23.63-2.47-19.33A14.21,14.21,0,0,0,723,532.84h0c-7.78,1-15.35-8.07-14.36-.29l.4,3.14a14.21,14.21,0,0,0-15.89-12.29h0a14.21,14.21,0,0,0-12.29,15.89l-1-7.9a14.21,14.21,0,0,0-28.19,3.6l-8.46-66.28a14.21,14.21,0,0,0-15.89-12.29h0A14.21,14.21,0,0,0,615,472.31l13.6,106.55.48,2.78-18.3-27.11a14.21,14.21,0,0,0-19.72-3.83h0a14.21,14.21,0,0,0-3.83,19.72s30.38,49.83,30.87,50.46l29.61,35.83,7.5,59L759.57,707,744.89,592.07Z"/><path class="cls-5" d="M740.16,545a15.5,15.5,0,0,0-17.31-13.39c-3.05.39-6.19-1-8.72-2.12s-4.36-1.93-5.76-.89a2.31,2.31,0,0,0-.46.45,15.47,15.47,0,0,0-26.87,1.7,15.47,15.47,0,0,0-29.19-4.31l-7.39-57.86a15.48,15.48,0,0,0-30.7,3.92L627,576.27l-15.16-22.46a15.48,15.48,0,0,0-25.67,17.29c7.15,11.73,30.44,49.92,30.94,50.56l0,0,29.37,35.55L654,715.91a1.27,1.27,0,0,0,1.26,1.11h.11l104.33-8.73a1.27,1.27,0,0,0,1.15-1.43ZM656.34,714.38,649,656.56a1.27,1.27,0,0,0-.28-.65l-29.57-35.79c-1-1.46-20.53-33.5-30.8-50.36l0,0a12.94,12.94,0,0,1,21.45-14.48l18.3,27.11a1.27,1.27,0,0,0,2.1-1.42l-.73-1.09a1.27,1.27,0,0,0,.46-1.15l-13.6-106.55a12.94,12.94,0,1,1,25.67-3.28l8.46,66.25v0h0a1.27,1.27,0,0,0,2.52-.32h0a12.94,12.94,0,0,1,25.67-3.27l1,7.9a1.27,1.27,0,0,0,2.52-.32h0a12.94,12.94,0,0,1,25.67-3.27,1.27,1.27,0,1,0,2.52-.32l-.4-3.14a4.45,4.45,0,0,1,0-1.76,12.92,12.92,0,0,1,3.2,1.15c2.66,1.18,6.31,2.8,10.07,2.32a13,13,0,0,1,14.47,11.19l20.5,160.57Z"/><path class="cls-4" d="M627.31,456.42h0A14.21,14.21,0,0,0,615,472.31l15,117.35,26.72-15.1L643.21,468.71A14.21,14.21,0,0,0,627.31,456.42Z"/><path class="cls-5" d="M644.46,468.55a15.48,15.48,0,1,0-30.7,3.92l15,117.35a1.27,1.27,0,0,0,1.26,1.11h.16a1.27,1.27,0,0,0,1.1-1.42l-15-117.35a12.94,12.94,0,1,1,25.67-3.28l13.52,105.85a1.27,1.27,0,1,0,2.52-.32Z"/><path class="cls-4" d="M720.24,511.2h0a14.21,14.21,0,0,0-12.29,15.89l-1.66-13a14.21,14.21,0,0,0-15.89-12.29h0a14.21,14.21,0,0,0-12.29,15.89l-1-7.9a14.21,14.21,0,0,0-28.19,3.6l.85,6.67,1.82,14.27,87,8.53-2.47-19.33A14.21,14.21,0,0,0,720.24,511.2Z"/><path class="cls-5" d="M737.39,523.33a15.47,15.47,0,0,0-29.26-4.82l-.59-4.62a15.48,15.48,0,0,0-27.59-7.51,15.62,15.62,0,0,0-1.68,2.69,15.48,15.48,0,0,0-30.63,4.44l2.67,20.94a1.27,1.27,0,1,0,2.52-.32l-2.67-20.94a12.94,12.94,0,0,1,25.67-3.28l1,7.89h0a1.27,1.27,0,1,0,2.52-.32A12.94,12.94,0,1,1,705,514.21l1.66,13a1.27,1.27,0,1,0,2.52-.32h0a12.94,12.94,0,0,1,25.67-3.27L737.34,543a1.27,1.27,0,0,0,1.26,1.11h.16a1.27,1.27,0,0,0,1.1-1.42Z"/><path class="cls-2" d="M642.28,520.93,629,522.62a1.27,1.27,0,0,0,.16,2.53h.16l13.23-1.69a1.27,1.27,0,0,0-.32-2.52Z"/><path class="cls-2" d="M640.74,524.93l-9.2,1.17a1.27,1.27,0,0,0,.16,2.53h.16l9.2-1.17a1.27,1.27,0,1,0-.32-2.52Z"/><line class="cls-4" x1="684.91" y1="570.97" x2="678.1" y2="517.65"/><path class="cls-5" d="M679.36,517.49a1.27,1.27,0,1,0-2.52.32l6.81,53.31a1.27,1.27,0,0,0,1.26,1.11h.16a1.27,1.27,0,0,0,1.1-1.42Z"/><line class="cls-4" x1="713.09" y1="567.37" x2="707.95" y2="527.09"/><path class="cls-5" d="M709.21,526.93a1.27,1.27,0,1,0-2.52.32l5.14,40.27a1.27,1.27,0,0,0,1.26,1.11h.16a1.27,1.27,0,0,0,1.1-1.42Z"/><path class="cls-2" d="M628,462.17h0a8.7,8.7,0,0,0-7.53,9.73l1.15,9,17.26-2.2-1.15-9A8.7,8.7,0,0,0,628,462.17Z"/><path class="cls-5" d="M639,469.54a10,10,0,0,0-19.78,2.53l1.15,9a1.27,1.27,0,0,0,1.26,1.11h.16l17.26-2.2a1.27,1.27,0,0,0,1.1-1.42Zm-16.27,9.94-1-7.74a7.44,7.44,0,0,1,6.43-8.31,7.53,7.53,0,0,1,1-.06,7.43,7.43,0,0,1,7.35,6.49l1,7.74Z"/><path class="cls-2" d="M594.35,555.52h0a8.7,8.7,0,0,0-2.56,12l4.94,7.61,14.59-9.47-4.94-7.61A8.7,8.7,0,0,0,594.35,555.52Z"/><path class="cls-5" d="M607.45,557.4a10,10,0,0,0-16.72,10.85l4.94,7.61a1.27,1.27,0,0,0,1.76.37L612,566.76a1.27,1.27,0,0,0,.37-1.76Zm-10.35,16-4.25-6.54a7.43,7.43,0,0,1,6.22-11.47,7.49,7.49,0,0,1,1.56.17,7.38,7.38,0,0,1,4.68,3.22l4.25,6.54Z"/><path class="cls-4" d="M327.15,560.53h0a14.05,14.05,0,0,0-19.32,4.66L291,592.8l-5.66-12.93-15.07-58.61-72,1.78-16.92,73.62L170.71,726.22l100,5.77,4.23-52,28.65-48.91c.46-.65,28.25-51.23,28.25-51.23A14.05,14.05,0,0,0,327.15,560.53Z"/><path class="cls-5" d="M327.82,559.45a15.32,15.32,0,0,0-21.06,5.08l-15.6,25.53-4.64-10.6-15-58.51a1.27,1.27,0,0,0-1.26-1l-72,1.78a1.27,1.27,0,0,0-1.21,1L180.1,596.36a1.27,1.27,0,0,0,0,.18L169.45,726.12a1.27,1.27,0,0,0,1.19,1.37l100,5.77h.07a1.27,1.27,0,0,0,1.26-1.17l4.21-51.72,28.5-48.66h0c1.32-2.22,21.85-39.59,28.26-51.24a15.32,15.32,0,0,0-5.1-21Zm-25.3,70.93,0,0Zm28.22-51.19,0,.05c-9.44,17.19-27.46,49.94-28.2,51.14l0,.06-28.65,48.91a1.27,1.27,0,0,0-.17.54l-4.13,50.77L172.08,725,182.6,596.84l16.68-72.57,70-1.73,14.82,57.63a1.26,1.26,0,0,0,.07.19l5.66,12.93a1.27,1.27,0,0,0,2.25.15l16.87-27.6a12.78,12.78,0,0,1,21.81,13.33Z"/><path class="cls-4" d="M207.59,486.79h0a12.29,12.29,0,0,0-13.8,10.57l-7.62,34.24a38.89,38.89,0,0,0-.84,5.84l-4,59.22,26-14.21,10.85-81.85A12.29,12.29,0,0,0,207.59,486.79Z"/><path class="cls-5" d="M207.76,485.53a13.58,13.58,0,0,0-15.22,11.61l-7.61,34.18a40.27,40.27,0,0,0-.87,6l-4,59.22a1.27,1.27,0,0,0,1.18,1.35h.09a1.27,1.27,0,0,0,1.27-1.18l4-59.22a37.74,37.74,0,0,1,.81-5.65L195,497.63l0-.11a11,11,0,1,1,21.85,2.9l-10.85,81.85a1.27,1.27,0,1,0,2.52.33l10.85-81.85a13.56,13.56,0,0,0-11.66-15.23Z"/><path class="cls-4" d="M237.59,461h0A14.05,14.05,0,0,0,221.81,473l-11.66,54.88a14.41,14.41,0,0,0-.3,2.29l-2.55,52.23,29.33-15.15,13-90.56A14.05,14.05,0,0,0,237.59,461Z"/><path class="cls-5" d="M237.75,459.7a15.32,15.32,0,0,0-17.19,13.12l-11.65,54.83a15.71,15.71,0,0,0-.32,2.49L206,582.38a1.27,1.27,0,0,0,1.21,1.33h.06a1.27,1.27,0,0,0,1.27-1.21l2.55-52.23a13.17,13.17,0,0,1,.27-2.09l11.66-54.88,0-.1a12.78,12.78,0,0,1,25.34,3.34l-13,90.56a1.27,1.27,0,1,0,2.51.36l13-90.57A15.34,15.34,0,0,0,237.75,459.7Z"/><path class="cls-4" d="M267.76,447.21h0A14.05,14.05,0,0,0,252,459.29l-15.73,69.66a18.76,18.76,0,0,0-.46,4.5l-1.6,47.2L263,589.83l7.4-55.81,9.41-71A14.05,14.05,0,0,0,267.76,447.21Z"/><path class="cls-5" d="M267.92,446a15.32,15.32,0,0,0-17.19,13.12L235,528.67a20.05,20.05,0,0,0-.49,4.77l-1.6,47.17a1.27,1.27,0,1,0,2.54.09l1.6-47.2s0,0,0-.07a17.51,17.51,0,0,1,.43-4.19l15.73-69.66,0-.11a12.78,12.78,0,0,1,25.34,3.36L261.77,589.66a1.27,1.27,0,0,0,1.09,1.43H263a1.27,1.27,0,0,0,1.26-1.1L281.1,463.15A15.32,15.32,0,0,0,267.92,446Z"/><path class="cls-4" d="M287.15,469h0A14.05,14.05,0,0,0,272,481.86l-5.4,65.86L291.32,590,300,484.15A14.05,14.05,0,0,0,287.15,469Z"/><path class="cls-17" d="M287.25,467.74a15.34,15.34,0,0,0-16.52,14l-5.4,65.86a1.27,1.27,0,0,0,2.53.21l5.4-65.86a12.78,12.78,0,0,1,25.48,2.09l-8.68,105.87a1.27,1.27,0,0,0,1.16,1.37h.11a1.27,1.27,0,0,0,1.26-1.17l8.68-105.87a15.32,15.32,0,0,0-14-16.52Z"/><path class="cls-4" d="M287.15,469h0A14.05,14.05,0,0,0,272,481.86l-8.62,105.06,27.06,13.84L300,484.15A14.05,14.05,0,0,0,287.15,469Z"/><path class="cls-5" d="M287.25,467.74a15.34,15.34,0,0,0-16.52,14l-8.62,105.06a1.27,1.27,0,0,0,2.53.21L273.26,482a12.78,12.78,0,0,1,25.48,2.09l-9.57,116.61a1.27,1.27,0,0,0,1.16,1.37h.11a1.27,1.27,0,0,0,1.26-1.17l9.57-116.61A15.34,15.34,0,0,0,287.25,467.74Z"/><path class="cls-2" d="M288.4,534.47l-13.15-1.08a1.27,1.27,0,0,0-.21,2.53L288.19,537h.11a1.27,1.27,0,0,0,.1-2.53Z"/><path class="cls-2" d="M286.09,538l-9.14-.75a1.27,1.27,0,0,0-.21,2.53l9.14.75H286a1.27,1.27,0,0,0,.1-2.53Z"/><path class="cls-2" d="M259.48,528.63l-12.86-2.93a1.27,1.27,0,1,0-.56,2.48l12.86,2.93a1.27,1.27,0,1,0,.56-2.48Z"/><path class="cls-2" d="M256.69,531.82l-8.94-2a1.27,1.27,0,1,0-.56,2.48l8.94,2a1.27,1.27,0,1,0,.56-2.48Z"/><path class="cls-2" d="M230.81,525.34l-12.86-2.93a1.27,1.27,0,1,0-.56,2.48l12.86,2.93a1.27,1.27,0,1,0,.56-2.48Z"/><path class="cls-2" d="M228,528.52l-8.94-2a1.27,1.27,0,1,0-.56,2.48l8.94,2a1.27,1.27,0,1,0,.56-2.48Z"/><path class="cls-2" d="M202.73,538.76l-9-1.54a1.27,1.27,0,1,0-.43,2.5l9,1.54.21,0a1.27,1.27,0,0,0,.21-2.52Z"/><path class="cls-2" d="M286.68,474.72h0a8.6,8.6,0,0,0-9.28,7.87l-.73,8.94,17.15,1.41.73-8.94A8.6,8.6,0,0,0,286.68,474.72Z"/><path class="cls-5" d="M286.78,473.45a9.87,9.87,0,0,0-10.65,9l-.73,8.94a1.27,1.27,0,0,0,1.16,1.37l17.15,1.41h.1a1.27,1.27,0,0,0,1.27-1.17l.73-8.94a9.87,9.87,0,0,0-9-10.65Zm6.5,10.44-.63,7.68L278,490.37l.63-7.68a7.33,7.33,0,0,1,14.62,1.2Z"/><path class="cls-2" d="M268,454.43h0a8,8,0,0,0-9.75,5.67l-2.13,8,15.41,4.08,2.13-8A8,8,0,0,0,268,454.43Z"/><path class="cls-5" d="M268.35,453.2a9.24,9.24,0,0,0-11.3,6.57l-2.13,8a1.27,1.27,0,0,0,.9,1.55l15.41,4.08a1.27,1.27,0,0,0,1.55-.9l2.13-8a9.24,9.24,0,0,0-6.57-11.3Zm4.11,10.65-1.8,6.81-13-3.43,1.8-6.81a6.7,6.7,0,1,1,13,3.43Z"/><path class="cls-2" d="M237.64,467.3h0a7.79,7.79,0,0,0-9.52,5.53L226,480.68l15.05,4,2.08-7.85A7.79,7.79,0,0,0,237.64,467.3Z"/><path class="cls-5" d="M238,466.07a9.06,9.06,0,0,0-11.07,6.44l-2.08,7.85a1.27,1.27,0,0,0,.9,1.55l15.05,4a1.27,1.27,0,0,0,1.55-.9l2.08-7.85A9.06,9.06,0,0,0,238,466.07Zm4,10.42-1.75,6.62-12.6-3.34,1.75-6.62a6.52,6.52,0,0,1,12.6,3.34Z"/><path class="cls-2" d="M207.36,493.2h0a6.24,6.24,0,0,0-7.63,4.44l-1.67,6.29,12.07,3.19,1.67-6.29A6.24,6.24,0,0,0,207.36,493.2Z"/><path class="cls-5" d="M207.68,492a7.52,7.52,0,0,0-9.18,5.34l-1.67,6.29a1.27,1.27,0,0,0,.9,1.55l12.07,3.19a1.27,1.27,0,0,0,1.55-.9l1.67-6.29A7.52,7.52,0,0,0,207.68,492Zm2.88,8.53-1.34,5.06L199.62,503,201,498a5,5,0,0,1,9.61,2.54Z"/><path class="cls-2" d="M324.14,565.44h0a8.6,8.6,0,0,0-11.77,3.07l-4.54,7.74,14.84,8.7,4.54-7.74A8.6,8.6,0,0,0,324.14,565.44Z"/><path class="cls-5" d="M324.78,564.35a9.88,9.88,0,0,0-13.51,3.52l-4.54,7.74a1.27,1.27,0,0,0,.45,1.74l14.84,8.7a1.27,1.27,0,0,0,1.74-.45l4.54-7.74A9.88,9.88,0,0,0,324.78,564.35Zm1.33,12.23-3.9,6.64-12.65-7.42,3.9-6.64a7.33,7.33,0,0,1,12.65,7.42Z"/><path class="cls-12" d="M279.19,672.37l-102.33-17.3a14.34,14.34,0,0,0-16.58,12L147.7,747.71H285.1L291,688.4A14.35,14.35,0,0,0,279.19,672.37Z"/><path class="cls-5" d="M279.4,671.12l-102.33-17.3a15.61,15.61,0,0,0-18,13.08l-12.57,80.82c0,.06,0-.06,0,0H286.38l5.9-59.17a15.61,15.61,0,0,0-12.88-17.42Zm10.36,17.11v0l-5.8,59.43H149.18l12.35-80.44a13.08,13.08,0,0,1,15.11-11L279,673.62h0a13.08,13.08,0,0,1,10.78,14.61Z"/><path class="cls-12" d="M753,655.07l-102.33,17.3a14.34,14.34,0,0,0-11.83,16l5.68,59.31h137.4l-12.35-80.63A14.35,14.35,0,0,0,753,655.07Z"/><path class="cls-5" d="M770.8,666.89a15.62,15.62,0,0,0-18-13.08l-102.33,17.3a15.61,15.61,0,0,0-12.88,17.42l5.67,59.17H783.16c0-.06,0,.06,0,0ZM645.65,747.71l-5.57-59.43v0a13.08,13.08,0,0,1,10.78-14.61l102.33-17.3a13.08,13.08,0,0,1,15.11,11l12.13,80.44Z"/><rect class="cls-2" x="350.46" y="117.28" width="185.04" height="102.49"/><path class="cls-8" d="M440.19,152.11h-8.44a1.27,1.27,0,0,0,0,2.54h8.44a1.27,1.27,0,1,0,0-2.54Z"/><path class="cls-8" d="M389.54,152.11h-8.44a1.27,1.27,0,0,0,0,2.54h8.44a1.27,1.27,0,0,0,0-2.54Z"/><path class="cls-8" d="M423.3,152.11h-8.44a1.27,1.27,0,0,0,0,2.54h8.44a1.27,1.27,0,0,0,0-2.54Z"/><path class="cls-8" d="M406.42,152.11H398a1.27,1.27,0,0,0,0,2.54h8.44a1.27,1.27,0,0,0,0-2.54Z"/><path class="cls-8" d="M355.77,152.11h-8.44a1.27,1.27,0,0,0,0,2.54h8.44a1.27,1.27,0,1,0,0-2.54Z"/><path class="cls-8" d="M372.65,152.11h-8.44a1.27,1.27,0,0,0,0,2.54h8.44a1.27,1.27,0,0,0,0-2.54Z"/><path class="cls-8" d="M490.84,152.11H482.4a1.27,1.27,0,1,0,0,2.54h8.44a1.27,1.27,0,1,0,0-2.54Z"/><path class="cls-8" d="M524.61,152.11h-8.44a1.27,1.27,0,1,0,0,2.54h8.44a1.27,1.27,0,1,0,0-2.54Z"/><path class="cls-8" d="M507.73,152.11h-8.44a1.27,1.27,0,1,0,0,2.54h8.44a1.27,1.27,0,1,0,0-2.54Z"/><path class="cls-8" d="M474,152.11h-8.44a1.27,1.27,0,1,0,0,2.54H474a1.27,1.27,0,1,0,0-2.54Z"/><path class="cls-8" d="M538.64,152.11h-5.59a1.27,1.27,0,1,0,0,2.54h5.59a1.27,1.27,0,1,0,0-2.54Z"/><path class="cls-8" d="M457.07,152.11h-8.44a1.27,1.27,0,1,0,0,2.54h8.44a1.27,1.27,0,1,0,0-2.54Z"/><path class="cls-8" d="M406.42,189.12H398a1.27,1.27,0,0,0,0,2.54h8.44a1.27,1.27,0,0,0,0-2.54Z"/><path class="cls-8" d="M423.3,189.12h-8.44a1.27,1.27,0,0,0,0,2.54h8.44a1.27,1.27,0,0,0,0-2.54Z"/><path class="cls-8" d="M355.77,189.12h-8.44a1.27,1.27,0,0,0,0,2.54h8.44a1.27,1.27,0,1,0,0-2.54Z"/><path class="cls-8" d="M389.54,189.12h-8.44a1.27,1.27,0,0,0,0,2.54h8.44a1.27,1.27,0,0,0,0-2.54Z"/><path class="cls-8" d="M440.19,189.12h-8.44a1.27,1.27,0,0,0,0,2.54h8.44a1.27,1.27,0,1,0,0-2.54Z"/><path class="cls-8" d="M372.65,189.12h-8.44a1.27,1.27,0,0,0,0,2.54h8.44a1.27,1.27,0,0,0,0-2.54Z"/><path class="cls-8" d="M490.84,189.12H482.4a1.27,1.27,0,1,0,0,2.54h8.44a1.27,1.27,0,1,0,0-2.54Z"/><path class="cls-8" d="M524.61,189.12h-8.44a1.27,1.27,0,1,0,0,2.54h8.44a1.27,1.27,0,1,0,0-2.54Z"/><path class="cls-8" d="M538.64,189.12h-5.59a1.27,1.27,0,1,0,0,2.54h5.59a1.27,1.27,0,1,0,0-2.54Z"/><path class="cls-8" d="M507.73,189.12h-8.44a1.27,1.27,0,1,0,0,2.54h8.44a1.27,1.27,0,1,0,0-2.54Z"/><path class="cls-8" d="M474,189.12h-8.44a1.27,1.27,0,1,0,0,2.54H474a1.27,1.27,0,1,0,0-2.54Z"/><path class="cls-8" d="M457.07,189.12h-8.44a1.27,1.27,0,1,0,0,2.54h8.44a1.27,1.27,0,1,0,0-2.54Z"/><path class="cls-5" d="M442,151.27,419.53,171l-22.37-9.38a1.27,1.27,0,0,0-.94,0l-23.1,8.78a1.27,1.27,0,0,0-.5.35l-23.1,26.34a1.27,1.27,0,0,0,1.91,1.67l22.89-26.1,22.33-8.49,22.63,9.49a1.27,1.27,0,0,0,1.33-.22l23.1-20.28a1.27,1.27,0,1,0-1.68-1.91Z"/><path class="cls-5" d="M528.69,113.26a1.27,1.27,0,0,0-1.67.67l-15.81,36.88-22.87,8.74a1.27,1.27,0,0,0-.3.16l-21.91,16.15-22.33-24.5a1.27,1.27,0,1,0-1.88,1.71L465,178.42a1.27,1.27,0,0,0,1.69.17l22.69-16.72L512.62,153a1.27,1.27,0,0,0,.71-.69l16-37.38A1.27,1.27,0,0,0,528.69,113.26Z"/><circle class="cls-4" cx="350.47" cy="197.94" r="2.99"/><path class="cls-5" d="M350.47,193.68a4.26,4.26,0,1,0,4.26,4.26A4.26,4.26,0,0,0,350.47,193.68Zm0,6a1.72,1.72,0,1,1,1.72-1.72A1.72,1.72,0,0,1,350.47,199.65Z"/><circle class="cls-4" cx="373.57" cy="171.6" r="2.99"/><path class="cls-5" d="M373.57,167.34a4.26,4.26,0,1,0,4.26,4.26A4.26,4.26,0,0,0,373.57,167.34Zm0,6a1.72,1.72,0,1,1,1.72-1.72A1.72,1.72,0,0,1,373.57,173.32Z"/><circle class="cls-4" cx="396.67" cy="162.82" r="2.99"/><path class="cls-5" d="M396.67,158.56a4.26,4.26,0,1,0,4.26,4.26A4.26,4.26,0,0,0,396.67,158.56Zm0,6a1.72,1.72,0,1,1,1.72-1.72A1.72,1.72,0,0,1,396.67,164.54Z"/><circle class="cls-4" cx="419.77" cy="172.51" r="2.99"/><path class="cls-5" d="M419.77,168.25a4.26,4.26,0,1,0,4.26,4.26A4.26,4.26,0,0,0,419.77,168.25Zm0,6a1.72,1.72,0,1,1,1.72-1.72A1.72,1.72,0,0,1,419.77,174.22Z"/><circle class="cls-4" cx="442.87" cy="152.22" r="2.99"/><path class="cls-5" d="M442.87,148a4.26,4.26,0,1,0,4.26,4.26A4.26,4.26,0,0,0,442.87,148Zm0,6a1.72,1.72,0,1,1,1.72-1.72A1.72,1.72,0,0,1,442.87,153.94Z"/><circle class="cls-4" cx="465.97" cy="177.57" r="2.99"/><path class="cls-5" d="M466,173.31a4.26,4.26,0,1,0,4.26,4.26A4.26,4.26,0,0,0,466,173.31Zm0,6a1.72,1.72,0,1,1,1.72-1.72A1.72,1.72,0,0,1,466,179.29Z"/><circle class="cls-4" cx="489.07" cy="161.31" r="2.99"/><path class="cls-5" d="M489.07,157a4.26,4.26,0,1,0,4.26,4.26A4.26,4.26,0,0,0,489.07,157Zm0,6a1.72,1.72,0,1,1,1.72-1.72A1.72,1.72,0,0,1,489.07,163Z"/><circle class="cls-4" cx="512.1" cy="152.11" r="2.99"/><path class="cls-5" d="M512.1,147.86a4.26,4.26,0,1,0,4.26,4.26A4.26,4.26,0,0,0,512.1,147.86Zm0,6a1.72,1.72,0,1,1,1.72-1.72A1.72,1.72,0,0,1,512.1,153.83Z"/><path class="cls-5" d="M529.44,114.22a1.27,1.27,0,0,0-2-.85l-7.68,5.13a1.27,1.27,0,0,0,1.41,2.11l6-4,1.09,6.59a1.27,1.27,0,0,0,1.25,1.06l.21,0a1.27,1.27,0,0,0,1-1.46Z"/><path class="cls-5" d="M538.05,242.32H411.92a1.27,1.27,0,0,0,0,2.54H538.05a1.27,1.27,0,0,0,0-2.54Z"/><path class="cls-5" d="M538.05,257.4H411.92a1.27,1.27,0,0,0,0,2.54H538.05a1.27,1.27,0,0,0,0-2.54Z"/><path class="cls-5" d="M482.29,272.48H411.92a1.27,1.27,0,0,0,0,2.54h70.38a1.27,1.27,0,1,0,0-2.54Z"/><path class="cls-18" d="M358.35,239.54h-4.06v38.73H393V239.54H358.35ZM389,274.21H358.35V243.59H389Z"/><polygon class="cls-19" points="374.26 260.85 365.92 252.5 362.2 256.22 370.55 264.56 370.55 264.56 374.26 268.28 377.98 264.56 395.24 247.12 391.52 243.41 374.26 260.85"/><polygon class="cls-18" points="374.26 260.85 365.92 252.5 362.2 256.22 370.55 264.56 370.55 264.56 374.26 268.28 377.98 264.56 395.24 247.12 391.52 243.41 374.26 260.85"/><path class="cls-18" d="M378,264.57l-3.72,3.72-3.72-3.72-8.35-8.35,3.72-3.72,8.35,8.35,17.26-17.44,3.72,3.72Z"/><polygon class="cls-6" points="66.92 432.38 58.55 425.77 55.6 429.5 63.97 436.11 63.97 436.11 67.7 439.06 70.65 435.33 84.31 417.86 80.58 414.91 66.92 432.38"/><path class="cls-6" d="M85.22,416.7l-3.73-2.95a1.47,1.47,0,0,0-2.07.25L66.67,430.31l-7.21-5.7a1.47,1.47,0,0,0-2.07.24l-2.95,3.73a1.47,1.47,0,0,0,.24,2.07l12.1,9.56a1.47,1.47,0,0,0,.91.32h.17a1.47,1.47,0,0,0,1-.55l3-3.74,13.66-17.48A1.47,1.47,0,0,0,85.22,416.7ZM69.49,434.42l-2,2.57-9.79-7.74,1.12-1.42,7.22,5.7a1.47,1.47,0,0,0,2.07-.25L80.83,417l1.42,1.12Z"/><polygon class="cls-6" points="72.31 481.17 63.93 474.55 60.99 478.28 69.36 484.89 69.36 484.89 73.09 487.84 76.03 484.11 89.7 466.64 85.97 463.69 72.31 481.17"/><path class="cls-6" d="M90.61,465.48l-3.73-2.95a1.47,1.47,0,0,0-2.07.25L72.06,479.09l-7.21-5.7a1.47,1.47,0,0,0-2.07.24l-2.95,3.73a1.47,1.47,0,0,0,.24,2.07L72.18,489a1.47,1.47,0,0,0,.91.32h.17a1.47,1.47,0,0,0,1-.55l3-3.74,13.66-17.48A1.47,1.47,0,0,0,90.61,465.48ZM74.88,483.2l-2,2.57L63.05,478l1.12-1.42,7.22,5.7a1.47,1.47,0,0,0,2.07-.25l12.75-16.31,1.42,1.12Z"/></g></g></svg>